%TF.GenerationSoftware,KiCad,Pcbnew,(5.1.10-1-10_14)*%
%TF.CreationDate,2022-03-12T11:50:30+00:00*%
%TF.ProjectId,altram_68k_r2,616c7472-616d-45f3-9638-6b5f72322e6b,2*%
%TF.SameCoordinates,Original*%
%TF.FileFunction,Soldermask,Top*%
%TF.FilePolarity,Negative*%
%FSLAX46Y46*%
G04 Gerber Fmt 4.6, Leading zero omitted, Abs format (unit mm)*
G04 Created by KiCad (PCBNEW (5.1.10-1-10_14)) date 2022-03-12 11:50:30*
%MOMM*%
%LPD*%
G01*
G04 APERTURE LIST*
%ADD10R,1.500000X1.000000*%
%ADD11C,0.100000*%
%ADD12O,1.600000X1.600000*%
%ADD13R,1.600000X1.600000*%
%ADD14R,1.000000X1.000000*%
%ADD15O,1.700000X1.700000*%
%ADD16R,1.700000X1.700000*%
%ADD17R,2.000000X1.800000*%
%ADD18R,1.510000X0.458000*%
G04 APERTURE END LIST*
%TO.C,D1*%
G36*
G01*
X147999999Y-127750000D02*
X148900001Y-127750000D01*
G75*
G02*
X149150000Y-127999999I0J-249999D01*
G01*
X149150000Y-128650001D01*
G75*
G02*
X148900001Y-128900000I-249999J0D01*
G01*
X147999999Y-128900000D01*
G75*
G02*
X147750000Y-128650001I0J249999D01*
G01*
X147750000Y-127999999D01*
G75*
G02*
X147999999Y-127750000I249999J0D01*
G01*
G37*
G36*
G01*
X147999999Y-125700000D02*
X148900001Y-125700000D01*
G75*
G02*
X149150000Y-125949999I0J-249999D01*
G01*
X149150000Y-126600001D01*
G75*
G02*
X148900001Y-126850000I-249999J0D01*
G01*
X147999999Y-126850000D01*
G75*
G02*
X147750000Y-126600001I0J249999D01*
G01*
X147750000Y-125949999D01*
G75*
G02*
X147999999Y-125700000I249999J0D01*
G01*
G37*
%TD*%
D10*
%TO.C,JP1*%
X149600000Y-119200000D03*
D11*
G36*
X150349398Y-120500000D02*
G01*
X150349398Y-120524534D01*
X150344588Y-120573365D01*
X150335016Y-120621490D01*
X150320772Y-120668445D01*
X150301995Y-120713778D01*
X150278864Y-120757051D01*
X150251604Y-120797850D01*
X150220476Y-120835779D01*
X150185779Y-120870476D01*
X150147850Y-120901604D01*
X150107051Y-120928864D01*
X150063778Y-120951995D01*
X150018445Y-120970772D01*
X149971490Y-120985016D01*
X149923365Y-120994588D01*
X149874534Y-120999398D01*
X149850000Y-120999398D01*
X149850000Y-121000000D01*
X149350000Y-121000000D01*
X149350000Y-120999398D01*
X149325466Y-120999398D01*
X149276635Y-120994588D01*
X149228510Y-120985016D01*
X149181555Y-120970772D01*
X149136222Y-120951995D01*
X149092949Y-120928864D01*
X149052150Y-120901604D01*
X149014221Y-120870476D01*
X148979524Y-120835779D01*
X148948396Y-120797850D01*
X148921136Y-120757051D01*
X148898005Y-120713778D01*
X148879228Y-120668445D01*
X148864984Y-120621490D01*
X148855412Y-120573365D01*
X148850602Y-120524534D01*
X148850602Y-120500000D01*
X148850000Y-120500000D01*
X148850000Y-119950000D01*
X150350000Y-119950000D01*
X150350000Y-120500000D01*
X150349398Y-120500000D01*
G37*
G36*
X148850000Y-118450000D02*
G01*
X148850000Y-117900000D01*
X148850602Y-117900000D01*
X148850602Y-117875466D01*
X148855412Y-117826635D01*
X148864984Y-117778510D01*
X148879228Y-117731555D01*
X148898005Y-117686222D01*
X148921136Y-117642949D01*
X148948396Y-117602150D01*
X148979524Y-117564221D01*
X149014221Y-117529524D01*
X149052150Y-117498396D01*
X149092949Y-117471136D01*
X149136222Y-117448005D01*
X149181555Y-117429228D01*
X149228510Y-117414984D01*
X149276635Y-117405412D01*
X149325466Y-117400602D01*
X149350000Y-117400602D01*
X149350000Y-117400000D01*
X149850000Y-117400000D01*
X149850000Y-117400602D01*
X149874534Y-117400602D01*
X149923365Y-117405412D01*
X149971490Y-117414984D01*
X150018445Y-117429228D01*
X150063778Y-117448005D01*
X150107051Y-117471136D01*
X150147850Y-117498396D01*
X150185779Y-117529524D01*
X150220476Y-117564221D01*
X150251604Y-117602150D01*
X150278864Y-117642949D01*
X150301995Y-117686222D01*
X150320772Y-117731555D01*
X150335016Y-117778510D01*
X150344588Y-117826635D01*
X150349398Y-117875466D01*
X150349398Y-117900000D01*
X150350000Y-117900000D01*
X150350000Y-118450000D01*
X148850000Y-118450000D01*
G37*
%TD*%
%TO.C,U3*%
G36*
G01*
X138150000Y-97200000D02*
X138150000Y-95875000D01*
G75*
G02*
X138225000Y-95800000I75000J0D01*
G01*
X138375000Y-95800000D01*
G75*
G02*
X138450000Y-95875000I0J-75000D01*
G01*
X138450000Y-97200000D01*
G75*
G02*
X138375000Y-97275000I-75000J0D01*
G01*
X138225000Y-97275000D01*
G75*
G02*
X138150000Y-97200000I0J75000D01*
G01*
G37*
G36*
G01*
X138650000Y-97200000D02*
X138650000Y-95875000D01*
G75*
G02*
X138725000Y-95800000I75000J0D01*
G01*
X138875000Y-95800000D01*
G75*
G02*
X138950000Y-95875000I0J-75000D01*
G01*
X138950000Y-97200000D01*
G75*
G02*
X138875000Y-97275000I-75000J0D01*
G01*
X138725000Y-97275000D01*
G75*
G02*
X138650000Y-97200000I0J75000D01*
G01*
G37*
G36*
G01*
X139150000Y-97200000D02*
X139150000Y-95875000D01*
G75*
G02*
X139225000Y-95800000I75000J0D01*
G01*
X139375000Y-95800000D01*
G75*
G02*
X139450000Y-95875000I0J-75000D01*
G01*
X139450000Y-97200000D01*
G75*
G02*
X139375000Y-97275000I-75000J0D01*
G01*
X139225000Y-97275000D01*
G75*
G02*
X139150000Y-97200000I0J75000D01*
G01*
G37*
G36*
G01*
X139650000Y-97200000D02*
X139650000Y-95875000D01*
G75*
G02*
X139725000Y-95800000I75000J0D01*
G01*
X139875000Y-95800000D01*
G75*
G02*
X139950000Y-95875000I0J-75000D01*
G01*
X139950000Y-97200000D01*
G75*
G02*
X139875000Y-97275000I-75000J0D01*
G01*
X139725000Y-97275000D01*
G75*
G02*
X139650000Y-97200000I0J75000D01*
G01*
G37*
G36*
G01*
X140150000Y-97200000D02*
X140150000Y-95875000D01*
G75*
G02*
X140225000Y-95800000I75000J0D01*
G01*
X140375000Y-95800000D01*
G75*
G02*
X140450000Y-95875000I0J-75000D01*
G01*
X140450000Y-97200000D01*
G75*
G02*
X140375000Y-97275000I-75000J0D01*
G01*
X140225000Y-97275000D01*
G75*
G02*
X140150000Y-97200000I0J75000D01*
G01*
G37*
G36*
G01*
X140650000Y-97200000D02*
X140650000Y-95875000D01*
G75*
G02*
X140725000Y-95800000I75000J0D01*
G01*
X140875000Y-95800000D01*
G75*
G02*
X140950000Y-95875000I0J-75000D01*
G01*
X140950000Y-97200000D01*
G75*
G02*
X140875000Y-97275000I-75000J0D01*
G01*
X140725000Y-97275000D01*
G75*
G02*
X140650000Y-97200000I0J75000D01*
G01*
G37*
G36*
G01*
X141150000Y-97200000D02*
X141150000Y-95875000D01*
G75*
G02*
X141225000Y-95800000I75000J0D01*
G01*
X141375000Y-95800000D01*
G75*
G02*
X141450000Y-95875000I0J-75000D01*
G01*
X141450000Y-97200000D01*
G75*
G02*
X141375000Y-97275000I-75000J0D01*
G01*
X141225000Y-97275000D01*
G75*
G02*
X141150000Y-97200000I0J75000D01*
G01*
G37*
G36*
G01*
X141650000Y-97200000D02*
X141650000Y-95875000D01*
G75*
G02*
X141725000Y-95800000I75000J0D01*
G01*
X141875000Y-95800000D01*
G75*
G02*
X141950000Y-95875000I0J-75000D01*
G01*
X141950000Y-97200000D01*
G75*
G02*
X141875000Y-97275000I-75000J0D01*
G01*
X141725000Y-97275000D01*
G75*
G02*
X141650000Y-97200000I0J75000D01*
G01*
G37*
G36*
G01*
X142150000Y-97200000D02*
X142150000Y-95875000D01*
G75*
G02*
X142225000Y-95800000I75000J0D01*
G01*
X142375000Y-95800000D01*
G75*
G02*
X142450000Y-95875000I0J-75000D01*
G01*
X142450000Y-97200000D01*
G75*
G02*
X142375000Y-97275000I-75000J0D01*
G01*
X142225000Y-97275000D01*
G75*
G02*
X142150000Y-97200000I0J75000D01*
G01*
G37*
G36*
G01*
X142650000Y-97200000D02*
X142650000Y-95875000D01*
G75*
G02*
X142725000Y-95800000I75000J0D01*
G01*
X142875000Y-95800000D01*
G75*
G02*
X142950000Y-95875000I0J-75000D01*
G01*
X142950000Y-97200000D01*
G75*
G02*
X142875000Y-97275000I-75000J0D01*
G01*
X142725000Y-97275000D01*
G75*
G02*
X142650000Y-97200000I0J75000D01*
G01*
G37*
G36*
G01*
X143150000Y-97200000D02*
X143150000Y-95875000D01*
G75*
G02*
X143225000Y-95800000I75000J0D01*
G01*
X143375000Y-95800000D01*
G75*
G02*
X143450000Y-95875000I0J-75000D01*
G01*
X143450000Y-97200000D01*
G75*
G02*
X143375000Y-97275000I-75000J0D01*
G01*
X143225000Y-97275000D01*
G75*
G02*
X143150000Y-97200000I0J75000D01*
G01*
G37*
G36*
G01*
X143650000Y-97200000D02*
X143650000Y-95875000D01*
G75*
G02*
X143725000Y-95800000I75000J0D01*
G01*
X143875000Y-95800000D01*
G75*
G02*
X143950000Y-95875000I0J-75000D01*
G01*
X143950000Y-97200000D01*
G75*
G02*
X143875000Y-97275000I-75000J0D01*
G01*
X143725000Y-97275000D01*
G75*
G02*
X143650000Y-97200000I0J75000D01*
G01*
G37*
G36*
G01*
X144150000Y-97200000D02*
X144150000Y-95875000D01*
G75*
G02*
X144225000Y-95800000I75000J0D01*
G01*
X144375000Y-95800000D01*
G75*
G02*
X144450000Y-95875000I0J-75000D01*
G01*
X144450000Y-97200000D01*
G75*
G02*
X144375000Y-97275000I-75000J0D01*
G01*
X144225000Y-97275000D01*
G75*
G02*
X144150000Y-97200000I0J75000D01*
G01*
G37*
G36*
G01*
X144650000Y-97200000D02*
X144650000Y-95875000D01*
G75*
G02*
X144725000Y-95800000I75000J0D01*
G01*
X144875000Y-95800000D01*
G75*
G02*
X144950000Y-95875000I0J-75000D01*
G01*
X144950000Y-97200000D01*
G75*
G02*
X144875000Y-97275000I-75000J0D01*
G01*
X144725000Y-97275000D01*
G75*
G02*
X144650000Y-97200000I0J75000D01*
G01*
G37*
G36*
G01*
X145150000Y-97200000D02*
X145150000Y-95875000D01*
G75*
G02*
X145225000Y-95800000I75000J0D01*
G01*
X145375000Y-95800000D01*
G75*
G02*
X145450000Y-95875000I0J-75000D01*
G01*
X145450000Y-97200000D01*
G75*
G02*
X145375000Y-97275000I-75000J0D01*
G01*
X145225000Y-97275000D01*
G75*
G02*
X145150000Y-97200000I0J75000D01*
G01*
G37*
G36*
G01*
X145650000Y-97200000D02*
X145650000Y-95875000D01*
G75*
G02*
X145725000Y-95800000I75000J0D01*
G01*
X145875000Y-95800000D01*
G75*
G02*
X145950000Y-95875000I0J-75000D01*
G01*
X145950000Y-97200000D01*
G75*
G02*
X145875000Y-97275000I-75000J0D01*
G01*
X145725000Y-97275000D01*
G75*
G02*
X145650000Y-97200000I0J75000D01*
G01*
G37*
G36*
G01*
X146150000Y-97200000D02*
X146150000Y-95875000D01*
G75*
G02*
X146225000Y-95800000I75000J0D01*
G01*
X146375000Y-95800000D01*
G75*
G02*
X146450000Y-95875000I0J-75000D01*
G01*
X146450000Y-97200000D01*
G75*
G02*
X146375000Y-97275000I-75000J0D01*
G01*
X146225000Y-97275000D01*
G75*
G02*
X146150000Y-97200000I0J75000D01*
G01*
G37*
G36*
G01*
X146650000Y-97200000D02*
X146650000Y-95875000D01*
G75*
G02*
X146725000Y-95800000I75000J0D01*
G01*
X146875000Y-95800000D01*
G75*
G02*
X146950000Y-95875000I0J-75000D01*
G01*
X146950000Y-97200000D01*
G75*
G02*
X146875000Y-97275000I-75000J0D01*
G01*
X146725000Y-97275000D01*
G75*
G02*
X146650000Y-97200000I0J75000D01*
G01*
G37*
G36*
G01*
X147150000Y-97200000D02*
X147150000Y-95875000D01*
G75*
G02*
X147225000Y-95800000I75000J0D01*
G01*
X147375000Y-95800000D01*
G75*
G02*
X147450000Y-95875000I0J-75000D01*
G01*
X147450000Y-97200000D01*
G75*
G02*
X147375000Y-97275000I-75000J0D01*
G01*
X147225000Y-97275000D01*
G75*
G02*
X147150000Y-97200000I0J75000D01*
G01*
G37*
G36*
G01*
X147650000Y-97200000D02*
X147650000Y-95875000D01*
G75*
G02*
X147725000Y-95800000I75000J0D01*
G01*
X147875000Y-95800000D01*
G75*
G02*
X147950000Y-95875000I0J-75000D01*
G01*
X147950000Y-97200000D01*
G75*
G02*
X147875000Y-97275000I-75000J0D01*
G01*
X147725000Y-97275000D01*
G75*
G02*
X147650000Y-97200000I0J75000D01*
G01*
G37*
G36*
G01*
X148150000Y-97200000D02*
X148150000Y-95875000D01*
G75*
G02*
X148225000Y-95800000I75000J0D01*
G01*
X148375000Y-95800000D01*
G75*
G02*
X148450000Y-95875000I0J-75000D01*
G01*
X148450000Y-97200000D01*
G75*
G02*
X148375000Y-97275000I-75000J0D01*
G01*
X148225000Y-97275000D01*
G75*
G02*
X148150000Y-97200000I0J75000D01*
G01*
G37*
G36*
G01*
X148650000Y-97200000D02*
X148650000Y-95875000D01*
G75*
G02*
X148725000Y-95800000I75000J0D01*
G01*
X148875000Y-95800000D01*
G75*
G02*
X148950000Y-95875000I0J-75000D01*
G01*
X148950000Y-97200000D01*
G75*
G02*
X148875000Y-97275000I-75000J0D01*
G01*
X148725000Y-97275000D01*
G75*
G02*
X148650000Y-97200000I0J75000D01*
G01*
G37*
G36*
G01*
X149150000Y-97200000D02*
X149150000Y-95875000D01*
G75*
G02*
X149225000Y-95800000I75000J0D01*
G01*
X149375000Y-95800000D01*
G75*
G02*
X149450000Y-95875000I0J-75000D01*
G01*
X149450000Y-97200000D01*
G75*
G02*
X149375000Y-97275000I-75000J0D01*
G01*
X149225000Y-97275000D01*
G75*
G02*
X149150000Y-97200000I0J75000D01*
G01*
G37*
G36*
G01*
X149650000Y-97200000D02*
X149650000Y-95875000D01*
G75*
G02*
X149725000Y-95800000I75000J0D01*
G01*
X149875000Y-95800000D01*
G75*
G02*
X149950000Y-95875000I0J-75000D01*
G01*
X149950000Y-97200000D01*
G75*
G02*
X149875000Y-97275000I-75000J0D01*
G01*
X149725000Y-97275000D01*
G75*
G02*
X149650000Y-97200000I0J75000D01*
G01*
G37*
G36*
G01*
X150150000Y-97200000D02*
X150150000Y-95875000D01*
G75*
G02*
X150225000Y-95800000I75000J0D01*
G01*
X150375000Y-95800000D01*
G75*
G02*
X150450000Y-95875000I0J-75000D01*
G01*
X150450000Y-97200000D01*
G75*
G02*
X150375000Y-97275000I-75000J0D01*
G01*
X150225000Y-97275000D01*
G75*
G02*
X150150000Y-97200000I0J75000D01*
G01*
G37*
G36*
G01*
X151225000Y-98275000D02*
X151225000Y-98125000D01*
G75*
G02*
X151300000Y-98050000I75000J0D01*
G01*
X152625000Y-98050000D01*
G75*
G02*
X152700000Y-98125000I0J-75000D01*
G01*
X152700000Y-98275000D01*
G75*
G02*
X152625000Y-98350000I-75000J0D01*
G01*
X151300000Y-98350000D01*
G75*
G02*
X151225000Y-98275000I0J75000D01*
G01*
G37*
G36*
G01*
X151225000Y-98775000D02*
X151225000Y-98625000D01*
G75*
G02*
X151300000Y-98550000I75000J0D01*
G01*
X152625000Y-98550000D01*
G75*
G02*
X152700000Y-98625000I0J-75000D01*
G01*
X152700000Y-98775000D01*
G75*
G02*
X152625000Y-98850000I-75000J0D01*
G01*
X151300000Y-98850000D01*
G75*
G02*
X151225000Y-98775000I0J75000D01*
G01*
G37*
G36*
G01*
X151225000Y-99275000D02*
X151225000Y-99125000D01*
G75*
G02*
X151300000Y-99050000I75000J0D01*
G01*
X152625000Y-99050000D01*
G75*
G02*
X152700000Y-99125000I0J-75000D01*
G01*
X152700000Y-99275000D01*
G75*
G02*
X152625000Y-99350000I-75000J0D01*
G01*
X151300000Y-99350000D01*
G75*
G02*
X151225000Y-99275000I0J75000D01*
G01*
G37*
G36*
G01*
X151225000Y-99775000D02*
X151225000Y-99625000D01*
G75*
G02*
X151300000Y-99550000I75000J0D01*
G01*
X152625000Y-99550000D01*
G75*
G02*
X152700000Y-99625000I0J-75000D01*
G01*
X152700000Y-99775000D01*
G75*
G02*
X152625000Y-99850000I-75000J0D01*
G01*
X151300000Y-99850000D01*
G75*
G02*
X151225000Y-99775000I0J75000D01*
G01*
G37*
G36*
G01*
X151225000Y-100275000D02*
X151225000Y-100125000D01*
G75*
G02*
X151300000Y-100050000I75000J0D01*
G01*
X152625000Y-100050000D01*
G75*
G02*
X152700000Y-100125000I0J-75000D01*
G01*
X152700000Y-100275000D01*
G75*
G02*
X152625000Y-100350000I-75000J0D01*
G01*
X151300000Y-100350000D01*
G75*
G02*
X151225000Y-100275000I0J75000D01*
G01*
G37*
G36*
G01*
X151225000Y-100775000D02*
X151225000Y-100625000D01*
G75*
G02*
X151300000Y-100550000I75000J0D01*
G01*
X152625000Y-100550000D01*
G75*
G02*
X152700000Y-100625000I0J-75000D01*
G01*
X152700000Y-100775000D01*
G75*
G02*
X152625000Y-100850000I-75000J0D01*
G01*
X151300000Y-100850000D01*
G75*
G02*
X151225000Y-100775000I0J75000D01*
G01*
G37*
G36*
G01*
X151225000Y-101275000D02*
X151225000Y-101125000D01*
G75*
G02*
X151300000Y-101050000I75000J0D01*
G01*
X152625000Y-101050000D01*
G75*
G02*
X152700000Y-101125000I0J-75000D01*
G01*
X152700000Y-101275000D01*
G75*
G02*
X152625000Y-101350000I-75000J0D01*
G01*
X151300000Y-101350000D01*
G75*
G02*
X151225000Y-101275000I0J75000D01*
G01*
G37*
G36*
G01*
X151225000Y-101775000D02*
X151225000Y-101625000D01*
G75*
G02*
X151300000Y-101550000I75000J0D01*
G01*
X152625000Y-101550000D01*
G75*
G02*
X152700000Y-101625000I0J-75000D01*
G01*
X152700000Y-101775000D01*
G75*
G02*
X152625000Y-101850000I-75000J0D01*
G01*
X151300000Y-101850000D01*
G75*
G02*
X151225000Y-101775000I0J75000D01*
G01*
G37*
G36*
G01*
X151225000Y-102275000D02*
X151225000Y-102125000D01*
G75*
G02*
X151300000Y-102050000I75000J0D01*
G01*
X152625000Y-102050000D01*
G75*
G02*
X152700000Y-102125000I0J-75000D01*
G01*
X152700000Y-102275000D01*
G75*
G02*
X152625000Y-102350000I-75000J0D01*
G01*
X151300000Y-102350000D01*
G75*
G02*
X151225000Y-102275000I0J75000D01*
G01*
G37*
G36*
G01*
X151225000Y-102775000D02*
X151225000Y-102625000D01*
G75*
G02*
X151300000Y-102550000I75000J0D01*
G01*
X152625000Y-102550000D01*
G75*
G02*
X152700000Y-102625000I0J-75000D01*
G01*
X152700000Y-102775000D01*
G75*
G02*
X152625000Y-102850000I-75000J0D01*
G01*
X151300000Y-102850000D01*
G75*
G02*
X151225000Y-102775000I0J75000D01*
G01*
G37*
G36*
G01*
X151225000Y-103275000D02*
X151225000Y-103125000D01*
G75*
G02*
X151300000Y-103050000I75000J0D01*
G01*
X152625000Y-103050000D01*
G75*
G02*
X152700000Y-103125000I0J-75000D01*
G01*
X152700000Y-103275000D01*
G75*
G02*
X152625000Y-103350000I-75000J0D01*
G01*
X151300000Y-103350000D01*
G75*
G02*
X151225000Y-103275000I0J75000D01*
G01*
G37*
G36*
G01*
X151225000Y-103775000D02*
X151225000Y-103625000D01*
G75*
G02*
X151300000Y-103550000I75000J0D01*
G01*
X152625000Y-103550000D01*
G75*
G02*
X152700000Y-103625000I0J-75000D01*
G01*
X152700000Y-103775000D01*
G75*
G02*
X152625000Y-103850000I-75000J0D01*
G01*
X151300000Y-103850000D01*
G75*
G02*
X151225000Y-103775000I0J75000D01*
G01*
G37*
G36*
G01*
X151225000Y-104275000D02*
X151225000Y-104125000D01*
G75*
G02*
X151300000Y-104050000I75000J0D01*
G01*
X152625000Y-104050000D01*
G75*
G02*
X152700000Y-104125000I0J-75000D01*
G01*
X152700000Y-104275000D01*
G75*
G02*
X152625000Y-104350000I-75000J0D01*
G01*
X151300000Y-104350000D01*
G75*
G02*
X151225000Y-104275000I0J75000D01*
G01*
G37*
G36*
G01*
X151225000Y-104775000D02*
X151225000Y-104625000D01*
G75*
G02*
X151300000Y-104550000I75000J0D01*
G01*
X152625000Y-104550000D01*
G75*
G02*
X152700000Y-104625000I0J-75000D01*
G01*
X152700000Y-104775000D01*
G75*
G02*
X152625000Y-104850000I-75000J0D01*
G01*
X151300000Y-104850000D01*
G75*
G02*
X151225000Y-104775000I0J75000D01*
G01*
G37*
G36*
G01*
X151225000Y-105275000D02*
X151225000Y-105125000D01*
G75*
G02*
X151300000Y-105050000I75000J0D01*
G01*
X152625000Y-105050000D01*
G75*
G02*
X152700000Y-105125000I0J-75000D01*
G01*
X152700000Y-105275000D01*
G75*
G02*
X152625000Y-105350000I-75000J0D01*
G01*
X151300000Y-105350000D01*
G75*
G02*
X151225000Y-105275000I0J75000D01*
G01*
G37*
G36*
G01*
X151225000Y-105775000D02*
X151225000Y-105625000D01*
G75*
G02*
X151300000Y-105550000I75000J0D01*
G01*
X152625000Y-105550000D01*
G75*
G02*
X152700000Y-105625000I0J-75000D01*
G01*
X152700000Y-105775000D01*
G75*
G02*
X152625000Y-105850000I-75000J0D01*
G01*
X151300000Y-105850000D01*
G75*
G02*
X151225000Y-105775000I0J75000D01*
G01*
G37*
G36*
G01*
X151225000Y-106275000D02*
X151225000Y-106125000D01*
G75*
G02*
X151300000Y-106050000I75000J0D01*
G01*
X152625000Y-106050000D01*
G75*
G02*
X152700000Y-106125000I0J-75000D01*
G01*
X152700000Y-106275000D01*
G75*
G02*
X152625000Y-106350000I-75000J0D01*
G01*
X151300000Y-106350000D01*
G75*
G02*
X151225000Y-106275000I0J75000D01*
G01*
G37*
G36*
G01*
X151225000Y-106775000D02*
X151225000Y-106625000D01*
G75*
G02*
X151300000Y-106550000I75000J0D01*
G01*
X152625000Y-106550000D01*
G75*
G02*
X152700000Y-106625000I0J-75000D01*
G01*
X152700000Y-106775000D01*
G75*
G02*
X152625000Y-106850000I-75000J0D01*
G01*
X151300000Y-106850000D01*
G75*
G02*
X151225000Y-106775000I0J75000D01*
G01*
G37*
G36*
G01*
X151225000Y-107275000D02*
X151225000Y-107125000D01*
G75*
G02*
X151300000Y-107050000I75000J0D01*
G01*
X152625000Y-107050000D01*
G75*
G02*
X152700000Y-107125000I0J-75000D01*
G01*
X152700000Y-107275000D01*
G75*
G02*
X152625000Y-107350000I-75000J0D01*
G01*
X151300000Y-107350000D01*
G75*
G02*
X151225000Y-107275000I0J75000D01*
G01*
G37*
G36*
G01*
X151225000Y-107775000D02*
X151225000Y-107625000D01*
G75*
G02*
X151300000Y-107550000I75000J0D01*
G01*
X152625000Y-107550000D01*
G75*
G02*
X152700000Y-107625000I0J-75000D01*
G01*
X152700000Y-107775000D01*
G75*
G02*
X152625000Y-107850000I-75000J0D01*
G01*
X151300000Y-107850000D01*
G75*
G02*
X151225000Y-107775000I0J75000D01*
G01*
G37*
G36*
G01*
X151225000Y-108275000D02*
X151225000Y-108125000D01*
G75*
G02*
X151300000Y-108050000I75000J0D01*
G01*
X152625000Y-108050000D01*
G75*
G02*
X152700000Y-108125000I0J-75000D01*
G01*
X152700000Y-108275000D01*
G75*
G02*
X152625000Y-108350000I-75000J0D01*
G01*
X151300000Y-108350000D01*
G75*
G02*
X151225000Y-108275000I0J75000D01*
G01*
G37*
G36*
G01*
X151225000Y-108775000D02*
X151225000Y-108625000D01*
G75*
G02*
X151300000Y-108550000I75000J0D01*
G01*
X152625000Y-108550000D01*
G75*
G02*
X152700000Y-108625000I0J-75000D01*
G01*
X152700000Y-108775000D01*
G75*
G02*
X152625000Y-108850000I-75000J0D01*
G01*
X151300000Y-108850000D01*
G75*
G02*
X151225000Y-108775000I0J75000D01*
G01*
G37*
G36*
G01*
X151225000Y-109275000D02*
X151225000Y-109125000D01*
G75*
G02*
X151300000Y-109050000I75000J0D01*
G01*
X152625000Y-109050000D01*
G75*
G02*
X152700000Y-109125000I0J-75000D01*
G01*
X152700000Y-109275000D01*
G75*
G02*
X152625000Y-109350000I-75000J0D01*
G01*
X151300000Y-109350000D01*
G75*
G02*
X151225000Y-109275000I0J75000D01*
G01*
G37*
G36*
G01*
X151225000Y-109775000D02*
X151225000Y-109625000D01*
G75*
G02*
X151300000Y-109550000I75000J0D01*
G01*
X152625000Y-109550000D01*
G75*
G02*
X152700000Y-109625000I0J-75000D01*
G01*
X152700000Y-109775000D01*
G75*
G02*
X152625000Y-109850000I-75000J0D01*
G01*
X151300000Y-109850000D01*
G75*
G02*
X151225000Y-109775000I0J75000D01*
G01*
G37*
G36*
G01*
X151225000Y-110275000D02*
X151225000Y-110125000D01*
G75*
G02*
X151300000Y-110050000I75000J0D01*
G01*
X152625000Y-110050000D01*
G75*
G02*
X152700000Y-110125000I0J-75000D01*
G01*
X152700000Y-110275000D01*
G75*
G02*
X152625000Y-110350000I-75000J0D01*
G01*
X151300000Y-110350000D01*
G75*
G02*
X151225000Y-110275000I0J75000D01*
G01*
G37*
G36*
G01*
X150150000Y-112525000D02*
X150150000Y-111200000D01*
G75*
G02*
X150225000Y-111125000I75000J0D01*
G01*
X150375000Y-111125000D01*
G75*
G02*
X150450000Y-111200000I0J-75000D01*
G01*
X150450000Y-112525000D01*
G75*
G02*
X150375000Y-112600000I-75000J0D01*
G01*
X150225000Y-112600000D01*
G75*
G02*
X150150000Y-112525000I0J75000D01*
G01*
G37*
G36*
G01*
X149650000Y-112525000D02*
X149650000Y-111200000D01*
G75*
G02*
X149725000Y-111125000I75000J0D01*
G01*
X149875000Y-111125000D01*
G75*
G02*
X149950000Y-111200000I0J-75000D01*
G01*
X149950000Y-112525000D01*
G75*
G02*
X149875000Y-112600000I-75000J0D01*
G01*
X149725000Y-112600000D01*
G75*
G02*
X149650000Y-112525000I0J75000D01*
G01*
G37*
G36*
G01*
X149150000Y-112525000D02*
X149150000Y-111200000D01*
G75*
G02*
X149225000Y-111125000I75000J0D01*
G01*
X149375000Y-111125000D01*
G75*
G02*
X149450000Y-111200000I0J-75000D01*
G01*
X149450000Y-112525000D01*
G75*
G02*
X149375000Y-112600000I-75000J0D01*
G01*
X149225000Y-112600000D01*
G75*
G02*
X149150000Y-112525000I0J75000D01*
G01*
G37*
G36*
G01*
X148650000Y-112525000D02*
X148650000Y-111200000D01*
G75*
G02*
X148725000Y-111125000I75000J0D01*
G01*
X148875000Y-111125000D01*
G75*
G02*
X148950000Y-111200000I0J-75000D01*
G01*
X148950000Y-112525000D01*
G75*
G02*
X148875000Y-112600000I-75000J0D01*
G01*
X148725000Y-112600000D01*
G75*
G02*
X148650000Y-112525000I0J75000D01*
G01*
G37*
G36*
G01*
X148150000Y-112525000D02*
X148150000Y-111200000D01*
G75*
G02*
X148225000Y-111125000I75000J0D01*
G01*
X148375000Y-111125000D01*
G75*
G02*
X148450000Y-111200000I0J-75000D01*
G01*
X148450000Y-112525000D01*
G75*
G02*
X148375000Y-112600000I-75000J0D01*
G01*
X148225000Y-112600000D01*
G75*
G02*
X148150000Y-112525000I0J75000D01*
G01*
G37*
G36*
G01*
X147650000Y-112525000D02*
X147650000Y-111200000D01*
G75*
G02*
X147725000Y-111125000I75000J0D01*
G01*
X147875000Y-111125000D01*
G75*
G02*
X147950000Y-111200000I0J-75000D01*
G01*
X147950000Y-112525000D01*
G75*
G02*
X147875000Y-112600000I-75000J0D01*
G01*
X147725000Y-112600000D01*
G75*
G02*
X147650000Y-112525000I0J75000D01*
G01*
G37*
G36*
G01*
X147150000Y-112525000D02*
X147150000Y-111200000D01*
G75*
G02*
X147225000Y-111125000I75000J0D01*
G01*
X147375000Y-111125000D01*
G75*
G02*
X147450000Y-111200000I0J-75000D01*
G01*
X147450000Y-112525000D01*
G75*
G02*
X147375000Y-112600000I-75000J0D01*
G01*
X147225000Y-112600000D01*
G75*
G02*
X147150000Y-112525000I0J75000D01*
G01*
G37*
G36*
G01*
X146650000Y-112525000D02*
X146650000Y-111200000D01*
G75*
G02*
X146725000Y-111125000I75000J0D01*
G01*
X146875000Y-111125000D01*
G75*
G02*
X146950000Y-111200000I0J-75000D01*
G01*
X146950000Y-112525000D01*
G75*
G02*
X146875000Y-112600000I-75000J0D01*
G01*
X146725000Y-112600000D01*
G75*
G02*
X146650000Y-112525000I0J75000D01*
G01*
G37*
G36*
G01*
X146150000Y-112525000D02*
X146150000Y-111200000D01*
G75*
G02*
X146225000Y-111125000I75000J0D01*
G01*
X146375000Y-111125000D01*
G75*
G02*
X146450000Y-111200000I0J-75000D01*
G01*
X146450000Y-112525000D01*
G75*
G02*
X146375000Y-112600000I-75000J0D01*
G01*
X146225000Y-112600000D01*
G75*
G02*
X146150000Y-112525000I0J75000D01*
G01*
G37*
G36*
G01*
X145650000Y-112525000D02*
X145650000Y-111200000D01*
G75*
G02*
X145725000Y-111125000I75000J0D01*
G01*
X145875000Y-111125000D01*
G75*
G02*
X145950000Y-111200000I0J-75000D01*
G01*
X145950000Y-112525000D01*
G75*
G02*
X145875000Y-112600000I-75000J0D01*
G01*
X145725000Y-112600000D01*
G75*
G02*
X145650000Y-112525000I0J75000D01*
G01*
G37*
G36*
G01*
X145150000Y-112525000D02*
X145150000Y-111200000D01*
G75*
G02*
X145225000Y-111125000I75000J0D01*
G01*
X145375000Y-111125000D01*
G75*
G02*
X145450000Y-111200000I0J-75000D01*
G01*
X145450000Y-112525000D01*
G75*
G02*
X145375000Y-112600000I-75000J0D01*
G01*
X145225000Y-112600000D01*
G75*
G02*
X145150000Y-112525000I0J75000D01*
G01*
G37*
G36*
G01*
X144650000Y-112525000D02*
X144650000Y-111200000D01*
G75*
G02*
X144725000Y-111125000I75000J0D01*
G01*
X144875000Y-111125000D01*
G75*
G02*
X144950000Y-111200000I0J-75000D01*
G01*
X144950000Y-112525000D01*
G75*
G02*
X144875000Y-112600000I-75000J0D01*
G01*
X144725000Y-112600000D01*
G75*
G02*
X144650000Y-112525000I0J75000D01*
G01*
G37*
G36*
G01*
X144150000Y-112525000D02*
X144150000Y-111200000D01*
G75*
G02*
X144225000Y-111125000I75000J0D01*
G01*
X144375000Y-111125000D01*
G75*
G02*
X144450000Y-111200000I0J-75000D01*
G01*
X144450000Y-112525000D01*
G75*
G02*
X144375000Y-112600000I-75000J0D01*
G01*
X144225000Y-112600000D01*
G75*
G02*
X144150000Y-112525000I0J75000D01*
G01*
G37*
G36*
G01*
X143650000Y-112525000D02*
X143650000Y-111200000D01*
G75*
G02*
X143725000Y-111125000I75000J0D01*
G01*
X143875000Y-111125000D01*
G75*
G02*
X143950000Y-111200000I0J-75000D01*
G01*
X143950000Y-112525000D01*
G75*
G02*
X143875000Y-112600000I-75000J0D01*
G01*
X143725000Y-112600000D01*
G75*
G02*
X143650000Y-112525000I0J75000D01*
G01*
G37*
G36*
G01*
X143150000Y-112525000D02*
X143150000Y-111200000D01*
G75*
G02*
X143225000Y-111125000I75000J0D01*
G01*
X143375000Y-111125000D01*
G75*
G02*
X143450000Y-111200000I0J-75000D01*
G01*
X143450000Y-112525000D01*
G75*
G02*
X143375000Y-112600000I-75000J0D01*
G01*
X143225000Y-112600000D01*
G75*
G02*
X143150000Y-112525000I0J75000D01*
G01*
G37*
G36*
G01*
X142650000Y-112525000D02*
X142650000Y-111200000D01*
G75*
G02*
X142725000Y-111125000I75000J0D01*
G01*
X142875000Y-111125000D01*
G75*
G02*
X142950000Y-111200000I0J-75000D01*
G01*
X142950000Y-112525000D01*
G75*
G02*
X142875000Y-112600000I-75000J0D01*
G01*
X142725000Y-112600000D01*
G75*
G02*
X142650000Y-112525000I0J75000D01*
G01*
G37*
G36*
G01*
X142150000Y-112525000D02*
X142150000Y-111200000D01*
G75*
G02*
X142225000Y-111125000I75000J0D01*
G01*
X142375000Y-111125000D01*
G75*
G02*
X142450000Y-111200000I0J-75000D01*
G01*
X142450000Y-112525000D01*
G75*
G02*
X142375000Y-112600000I-75000J0D01*
G01*
X142225000Y-112600000D01*
G75*
G02*
X142150000Y-112525000I0J75000D01*
G01*
G37*
G36*
G01*
X141650000Y-112525000D02*
X141650000Y-111200000D01*
G75*
G02*
X141725000Y-111125000I75000J0D01*
G01*
X141875000Y-111125000D01*
G75*
G02*
X141950000Y-111200000I0J-75000D01*
G01*
X141950000Y-112525000D01*
G75*
G02*
X141875000Y-112600000I-75000J0D01*
G01*
X141725000Y-112600000D01*
G75*
G02*
X141650000Y-112525000I0J75000D01*
G01*
G37*
G36*
G01*
X141150000Y-112525000D02*
X141150000Y-111200000D01*
G75*
G02*
X141225000Y-111125000I75000J0D01*
G01*
X141375000Y-111125000D01*
G75*
G02*
X141450000Y-111200000I0J-75000D01*
G01*
X141450000Y-112525000D01*
G75*
G02*
X141375000Y-112600000I-75000J0D01*
G01*
X141225000Y-112600000D01*
G75*
G02*
X141150000Y-112525000I0J75000D01*
G01*
G37*
G36*
G01*
X140650000Y-112525000D02*
X140650000Y-111200000D01*
G75*
G02*
X140725000Y-111125000I75000J0D01*
G01*
X140875000Y-111125000D01*
G75*
G02*
X140950000Y-111200000I0J-75000D01*
G01*
X140950000Y-112525000D01*
G75*
G02*
X140875000Y-112600000I-75000J0D01*
G01*
X140725000Y-112600000D01*
G75*
G02*
X140650000Y-112525000I0J75000D01*
G01*
G37*
G36*
G01*
X140150000Y-112525000D02*
X140150000Y-111200000D01*
G75*
G02*
X140225000Y-111125000I75000J0D01*
G01*
X140375000Y-111125000D01*
G75*
G02*
X140450000Y-111200000I0J-75000D01*
G01*
X140450000Y-112525000D01*
G75*
G02*
X140375000Y-112600000I-75000J0D01*
G01*
X140225000Y-112600000D01*
G75*
G02*
X140150000Y-112525000I0J75000D01*
G01*
G37*
G36*
G01*
X139650000Y-112525000D02*
X139650000Y-111200000D01*
G75*
G02*
X139725000Y-111125000I75000J0D01*
G01*
X139875000Y-111125000D01*
G75*
G02*
X139950000Y-111200000I0J-75000D01*
G01*
X139950000Y-112525000D01*
G75*
G02*
X139875000Y-112600000I-75000J0D01*
G01*
X139725000Y-112600000D01*
G75*
G02*
X139650000Y-112525000I0J75000D01*
G01*
G37*
G36*
G01*
X139150000Y-112525000D02*
X139150000Y-111200000D01*
G75*
G02*
X139225000Y-111125000I75000J0D01*
G01*
X139375000Y-111125000D01*
G75*
G02*
X139450000Y-111200000I0J-75000D01*
G01*
X139450000Y-112525000D01*
G75*
G02*
X139375000Y-112600000I-75000J0D01*
G01*
X139225000Y-112600000D01*
G75*
G02*
X139150000Y-112525000I0J75000D01*
G01*
G37*
G36*
G01*
X138650000Y-112525000D02*
X138650000Y-111200000D01*
G75*
G02*
X138725000Y-111125000I75000J0D01*
G01*
X138875000Y-111125000D01*
G75*
G02*
X138950000Y-111200000I0J-75000D01*
G01*
X138950000Y-112525000D01*
G75*
G02*
X138875000Y-112600000I-75000J0D01*
G01*
X138725000Y-112600000D01*
G75*
G02*
X138650000Y-112525000I0J75000D01*
G01*
G37*
G36*
G01*
X138150000Y-112525000D02*
X138150000Y-111200000D01*
G75*
G02*
X138225000Y-111125000I75000J0D01*
G01*
X138375000Y-111125000D01*
G75*
G02*
X138450000Y-111200000I0J-75000D01*
G01*
X138450000Y-112525000D01*
G75*
G02*
X138375000Y-112600000I-75000J0D01*
G01*
X138225000Y-112600000D01*
G75*
G02*
X138150000Y-112525000I0J75000D01*
G01*
G37*
G36*
G01*
X135900000Y-110275000D02*
X135900000Y-110125000D01*
G75*
G02*
X135975000Y-110050000I75000J0D01*
G01*
X137300000Y-110050000D01*
G75*
G02*
X137375000Y-110125000I0J-75000D01*
G01*
X137375000Y-110275000D01*
G75*
G02*
X137300000Y-110350000I-75000J0D01*
G01*
X135975000Y-110350000D01*
G75*
G02*
X135900000Y-110275000I0J75000D01*
G01*
G37*
G36*
G01*
X135900000Y-109775000D02*
X135900000Y-109625000D01*
G75*
G02*
X135975000Y-109550000I75000J0D01*
G01*
X137300000Y-109550000D01*
G75*
G02*
X137375000Y-109625000I0J-75000D01*
G01*
X137375000Y-109775000D01*
G75*
G02*
X137300000Y-109850000I-75000J0D01*
G01*
X135975000Y-109850000D01*
G75*
G02*
X135900000Y-109775000I0J75000D01*
G01*
G37*
G36*
G01*
X135900000Y-109275000D02*
X135900000Y-109125000D01*
G75*
G02*
X135975000Y-109050000I75000J0D01*
G01*
X137300000Y-109050000D01*
G75*
G02*
X137375000Y-109125000I0J-75000D01*
G01*
X137375000Y-109275000D01*
G75*
G02*
X137300000Y-109350000I-75000J0D01*
G01*
X135975000Y-109350000D01*
G75*
G02*
X135900000Y-109275000I0J75000D01*
G01*
G37*
G36*
G01*
X135900000Y-108775000D02*
X135900000Y-108625000D01*
G75*
G02*
X135975000Y-108550000I75000J0D01*
G01*
X137300000Y-108550000D01*
G75*
G02*
X137375000Y-108625000I0J-75000D01*
G01*
X137375000Y-108775000D01*
G75*
G02*
X137300000Y-108850000I-75000J0D01*
G01*
X135975000Y-108850000D01*
G75*
G02*
X135900000Y-108775000I0J75000D01*
G01*
G37*
G36*
G01*
X135900000Y-108275000D02*
X135900000Y-108125000D01*
G75*
G02*
X135975000Y-108050000I75000J0D01*
G01*
X137300000Y-108050000D01*
G75*
G02*
X137375000Y-108125000I0J-75000D01*
G01*
X137375000Y-108275000D01*
G75*
G02*
X137300000Y-108350000I-75000J0D01*
G01*
X135975000Y-108350000D01*
G75*
G02*
X135900000Y-108275000I0J75000D01*
G01*
G37*
G36*
G01*
X135900000Y-107775000D02*
X135900000Y-107625000D01*
G75*
G02*
X135975000Y-107550000I75000J0D01*
G01*
X137300000Y-107550000D01*
G75*
G02*
X137375000Y-107625000I0J-75000D01*
G01*
X137375000Y-107775000D01*
G75*
G02*
X137300000Y-107850000I-75000J0D01*
G01*
X135975000Y-107850000D01*
G75*
G02*
X135900000Y-107775000I0J75000D01*
G01*
G37*
G36*
G01*
X135900000Y-107275000D02*
X135900000Y-107125000D01*
G75*
G02*
X135975000Y-107050000I75000J0D01*
G01*
X137300000Y-107050000D01*
G75*
G02*
X137375000Y-107125000I0J-75000D01*
G01*
X137375000Y-107275000D01*
G75*
G02*
X137300000Y-107350000I-75000J0D01*
G01*
X135975000Y-107350000D01*
G75*
G02*
X135900000Y-107275000I0J75000D01*
G01*
G37*
G36*
G01*
X135900000Y-106775000D02*
X135900000Y-106625000D01*
G75*
G02*
X135975000Y-106550000I75000J0D01*
G01*
X137300000Y-106550000D01*
G75*
G02*
X137375000Y-106625000I0J-75000D01*
G01*
X137375000Y-106775000D01*
G75*
G02*
X137300000Y-106850000I-75000J0D01*
G01*
X135975000Y-106850000D01*
G75*
G02*
X135900000Y-106775000I0J75000D01*
G01*
G37*
G36*
G01*
X135900000Y-106275000D02*
X135900000Y-106125000D01*
G75*
G02*
X135975000Y-106050000I75000J0D01*
G01*
X137300000Y-106050000D01*
G75*
G02*
X137375000Y-106125000I0J-75000D01*
G01*
X137375000Y-106275000D01*
G75*
G02*
X137300000Y-106350000I-75000J0D01*
G01*
X135975000Y-106350000D01*
G75*
G02*
X135900000Y-106275000I0J75000D01*
G01*
G37*
G36*
G01*
X135900000Y-105775000D02*
X135900000Y-105625000D01*
G75*
G02*
X135975000Y-105550000I75000J0D01*
G01*
X137300000Y-105550000D01*
G75*
G02*
X137375000Y-105625000I0J-75000D01*
G01*
X137375000Y-105775000D01*
G75*
G02*
X137300000Y-105850000I-75000J0D01*
G01*
X135975000Y-105850000D01*
G75*
G02*
X135900000Y-105775000I0J75000D01*
G01*
G37*
G36*
G01*
X135900000Y-105275000D02*
X135900000Y-105125000D01*
G75*
G02*
X135975000Y-105050000I75000J0D01*
G01*
X137300000Y-105050000D01*
G75*
G02*
X137375000Y-105125000I0J-75000D01*
G01*
X137375000Y-105275000D01*
G75*
G02*
X137300000Y-105350000I-75000J0D01*
G01*
X135975000Y-105350000D01*
G75*
G02*
X135900000Y-105275000I0J75000D01*
G01*
G37*
G36*
G01*
X135900000Y-104775000D02*
X135900000Y-104625000D01*
G75*
G02*
X135975000Y-104550000I75000J0D01*
G01*
X137300000Y-104550000D01*
G75*
G02*
X137375000Y-104625000I0J-75000D01*
G01*
X137375000Y-104775000D01*
G75*
G02*
X137300000Y-104850000I-75000J0D01*
G01*
X135975000Y-104850000D01*
G75*
G02*
X135900000Y-104775000I0J75000D01*
G01*
G37*
G36*
G01*
X135900000Y-104275000D02*
X135900000Y-104125000D01*
G75*
G02*
X135975000Y-104050000I75000J0D01*
G01*
X137300000Y-104050000D01*
G75*
G02*
X137375000Y-104125000I0J-75000D01*
G01*
X137375000Y-104275000D01*
G75*
G02*
X137300000Y-104350000I-75000J0D01*
G01*
X135975000Y-104350000D01*
G75*
G02*
X135900000Y-104275000I0J75000D01*
G01*
G37*
G36*
G01*
X135900000Y-103775000D02*
X135900000Y-103625000D01*
G75*
G02*
X135975000Y-103550000I75000J0D01*
G01*
X137300000Y-103550000D01*
G75*
G02*
X137375000Y-103625000I0J-75000D01*
G01*
X137375000Y-103775000D01*
G75*
G02*
X137300000Y-103850000I-75000J0D01*
G01*
X135975000Y-103850000D01*
G75*
G02*
X135900000Y-103775000I0J75000D01*
G01*
G37*
G36*
G01*
X135900000Y-103275000D02*
X135900000Y-103125000D01*
G75*
G02*
X135975000Y-103050000I75000J0D01*
G01*
X137300000Y-103050000D01*
G75*
G02*
X137375000Y-103125000I0J-75000D01*
G01*
X137375000Y-103275000D01*
G75*
G02*
X137300000Y-103350000I-75000J0D01*
G01*
X135975000Y-103350000D01*
G75*
G02*
X135900000Y-103275000I0J75000D01*
G01*
G37*
G36*
G01*
X135900000Y-102775000D02*
X135900000Y-102625000D01*
G75*
G02*
X135975000Y-102550000I75000J0D01*
G01*
X137300000Y-102550000D01*
G75*
G02*
X137375000Y-102625000I0J-75000D01*
G01*
X137375000Y-102775000D01*
G75*
G02*
X137300000Y-102850000I-75000J0D01*
G01*
X135975000Y-102850000D01*
G75*
G02*
X135900000Y-102775000I0J75000D01*
G01*
G37*
G36*
G01*
X135900000Y-102275000D02*
X135900000Y-102125000D01*
G75*
G02*
X135975000Y-102050000I75000J0D01*
G01*
X137300000Y-102050000D01*
G75*
G02*
X137375000Y-102125000I0J-75000D01*
G01*
X137375000Y-102275000D01*
G75*
G02*
X137300000Y-102350000I-75000J0D01*
G01*
X135975000Y-102350000D01*
G75*
G02*
X135900000Y-102275000I0J75000D01*
G01*
G37*
G36*
G01*
X135900000Y-101775000D02*
X135900000Y-101625000D01*
G75*
G02*
X135975000Y-101550000I75000J0D01*
G01*
X137300000Y-101550000D01*
G75*
G02*
X137375000Y-101625000I0J-75000D01*
G01*
X137375000Y-101775000D01*
G75*
G02*
X137300000Y-101850000I-75000J0D01*
G01*
X135975000Y-101850000D01*
G75*
G02*
X135900000Y-101775000I0J75000D01*
G01*
G37*
G36*
G01*
X135900000Y-101275000D02*
X135900000Y-101125000D01*
G75*
G02*
X135975000Y-101050000I75000J0D01*
G01*
X137300000Y-101050000D01*
G75*
G02*
X137375000Y-101125000I0J-75000D01*
G01*
X137375000Y-101275000D01*
G75*
G02*
X137300000Y-101350000I-75000J0D01*
G01*
X135975000Y-101350000D01*
G75*
G02*
X135900000Y-101275000I0J75000D01*
G01*
G37*
G36*
G01*
X135900000Y-100775000D02*
X135900000Y-100625000D01*
G75*
G02*
X135975000Y-100550000I75000J0D01*
G01*
X137300000Y-100550000D01*
G75*
G02*
X137375000Y-100625000I0J-75000D01*
G01*
X137375000Y-100775000D01*
G75*
G02*
X137300000Y-100850000I-75000J0D01*
G01*
X135975000Y-100850000D01*
G75*
G02*
X135900000Y-100775000I0J75000D01*
G01*
G37*
G36*
G01*
X135900000Y-100275000D02*
X135900000Y-100125000D01*
G75*
G02*
X135975000Y-100050000I75000J0D01*
G01*
X137300000Y-100050000D01*
G75*
G02*
X137375000Y-100125000I0J-75000D01*
G01*
X137375000Y-100275000D01*
G75*
G02*
X137300000Y-100350000I-75000J0D01*
G01*
X135975000Y-100350000D01*
G75*
G02*
X135900000Y-100275000I0J75000D01*
G01*
G37*
G36*
G01*
X135900000Y-99775000D02*
X135900000Y-99625000D01*
G75*
G02*
X135975000Y-99550000I75000J0D01*
G01*
X137300000Y-99550000D01*
G75*
G02*
X137375000Y-99625000I0J-75000D01*
G01*
X137375000Y-99775000D01*
G75*
G02*
X137300000Y-99850000I-75000J0D01*
G01*
X135975000Y-99850000D01*
G75*
G02*
X135900000Y-99775000I0J75000D01*
G01*
G37*
G36*
G01*
X135900000Y-99275000D02*
X135900000Y-99125000D01*
G75*
G02*
X135975000Y-99050000I75000J0D01*
G01*
X137300000Y-99050000D01*
G75*
G02*
X137375000Y-99125000I0J-75000D01*
G01*
X137375000Y-99275000D01*
G75*
G02*
X137300000Y-99350000I-75000J0D01*
G01*
X135975000Y-99350000D01*
G75*
G02*
X135900000Y-99275000I0J75000D01*
G01*
G37*
G36*
G01*
X135900000Y-98775000D02*
X135900000Y-98625000D01*
G75*
G02*
X135975000Y-98550000I75000J0D01*
G01*
X137300000Y-98550000D01*
G75*
G02*
X137375000Y-98625000I0J-75000D01*
G01*
X137375000Y-98775000D01*
G75*
G02*
X137300000Y-98850000I-75000J0D01*
G01*
X135975000Y-98850000D01*
G75*
G02*
X135900000Y-98775000I0J75000D01*
G01*
G37*
G36*
G01*
X135900000Y-98275000D02*
X135900000Y-98125000D01*
G75*
G02*
X135975000Y-98050000I75000J0D01*
G01*
X137300000Y-98050000D01*
G75*
G02*
X137375000Y-98125000I0J-75000D01*
G01*
X137375000Y-98275000D01*
G75*
G02*
X137300000Y-98350000I-75000J0D01*
G01*
X135975000Y-98350000D01*
G75*
G02*
X135900000Y-98275000I0J75000D01*
G01*
G37*
%TD*%
D12*
%TO.C,U1*%
X154432000Y-55626000D03*
X131572000Y-134366000D03*
X154432000Y-58166000D03*
X131572000Y-131826000D03*
X154432000Y-60706000D03*
X131572000Y-129286000D03*
X154432000Y-63246000D03*
X131572000Y-126746000D03*
X154432000Y-65786000D03*
X131572000Y-124206000D03*
X154432000Y-68326000D03*
X131572000Y-121666000D03*
X154432000Y-70866000D03*
X131572000Y-119126000D03*
X154432000Y-73406000D03*
X131572000Y-116586000D03*
X154432000Y-75946000D03*
X131572000Y-114046000D03*
X154432000Y-78486000D03*
X131572000Y-111506000D03*
X154432000Y-81026000D03*
X131572000Y-108966000D03*
X154432000Y-83566000D03*
X131572000Y-106426000D03*
X154432000Y-86106000D03*
X131572000Y-103886000D03*
X154432000Y-88646000D03*
X131572000Y-101346000D03*
X154432000Y-91186000D03*
X131572000Y-98806000D03*
X154432000Y-93726000D03*
X131572000Y-96266000D03*
X154432000Y-96266000D03*
X131572000Y-93726000D03*
X154432000Y-98806000D03*
X131572000Y-91186000D03*
X154432000Y-101346000D03*
X131572000Y-88646000D03*
X154432000Y-103886000D03*
X131572000Y-86106000D03*
X154432000Y-106426000D03*
X131572000Y-83566000D03*
X154432000Y-108966000D03*
X131572000Y-81026000D03*
X154432000Y-111506000D03*
X131572000Y-78486000D03*
X154432000Y-114046000D03*
X131572000Y-75946000D03*
X154432000Y-116586000D03*
X131572000Y-73406000D03*
X154432000Y-119126000D03*
X131572000Y-70866000D03*
X154432000Y-121666000D03*
X131572000Y-68326000D03*
X154432000Y-124206000D03*
X131572000Y-65786000D03*
X154432000Y-126746000D03*
X131572000Y-63246000D03*
X154432000Y-129286000D03*
X131572000Y-60706000D03*
X154432000Y-131826000D03*
X131572000Y-58166000D03*
X154432000Y-134366000D03*
D13*
X131572000Y-55626000D03*
%TD*%
D12*
%TO.C,U2*%
X156972000Y-55626000D03*
X134112000Y-134366000D03*
X156972000Y-58166000D03*
X134112000Y-131826000D03*
X156972000Y-60706000D03*
X134112000Y-129286000D03*
X156972000Y-63246000D03*
X134112000Y-126746000D03*
X156972000Y-65786000D03*
X134112000Y-124206000D03*
X156972000Y-68326000D03*
X134112000Y-121666000D03*
X156972000Y-70866000D03*
X134112000Y-119126000D03*
X156972000Y-73406000D03*
X134112000Y-116586000D03*
X156972000Y-75946000D03*
X134112000Y-114046000D03*
X156972000Y-78486000D03*
X134112000Y-111506000D03*
X156972000Y-81026000D03*
X134112000Y-108966000D03*
X156972000Y-83566000D03*
X134112000Y-106426000D03*
X156972000Y-86106000D03*
X134112000Y-103886000D03*
X156972000Y-88646000D03*
X134112000Y-101346000D03*
X156972000Y-91186000D03*
X134112000Y-98806000D03*
X156972000Y-93726000D03*
X134112000Y-96266000D03*
X156972000Y-96266000D03*
X134112000Y-93726000D03*
X156972000Y-98806000D03*
X134112000Y-91186000D03*
X156972000Y-101346000D03*
X134112000Y-88646000D03*
X156972000Y-103886000D03*
X134112000Y-86106000D03*
X156972000Y-106426000D03*
X134112000Y-83566000D03*
X156972000Y-108966000D03*
X134112000Y-81026000D03*
X156972000Y-111506000D03*
X134112000Y-78486000D03*
X156972000Y-114046000D03*
X134112000Y-75946000D03*
X156972000Y-116586000D03*
X134112000Y-73406000D03*
X156972000Y-119126000D03*
X134112000Y-70866000D03*
X156972000Y-121666000D03*
X134112000Y-68326000D03*
X156972000Y-124206000D03*
X134112000Y-65786000D03*
X156972000Y-126746000D03*
X134112000Y-63246000D03*
X156972000Y-129286000D03*
X134112000Y-60706000D03*
X156972000Y-131826000D03*
X134112000Y-58166000D03*
X156972000Y-134366000D03*
D13*
X134112000Y-55626000D03*
%TD*%
D14*
%TO.C,TP5*%
X143700000Y-128100000D03*
%TD*%
%TO.C,TP4*%
X143700000Y-126000000D03*
%TD*%
%TO.C,TP3*%
X141650000Y-126000000D03*
%TD*%
%TO.C,TP2*%
X141650000Y-128100000D03*
%TD*%
%TO.C,TP1*%
X141650000Y-130200000D03*
%TD*%
D15*
%TO.C,J1*%
X137900000Y-134200000D03*
X140440000Y-134200000D03*
X142980000Y-134200000D03*
X145520000Y-134200000D03*
X148060000Y-134200000D03*
D16*
X150600000Y-134200000D03*
%TD*%
D17*
%TO.C,X1*%
X144100000Y-117760000D03*
X144100000Y-122840000D03*
X139900000Y-122840000D03*
X139900000Y-117760000D03*
%TD*%
D18*
%TO.C,IC1*%
X150150000Y-69200000D03*
X150150000Y-70000000D03*
X150150000Y-70800000D03*
X150150000Y-71600000D03*
X150150000Y-72400000D03*
X150150000Y-73200000D03*
X150150000Y-74000000D03*
X150150000Y-74800000D03*
X150150000Y-75600000D03*
X150150000Y-76400000D03*
X150150000Y-77200000D03*
X150150000Y-78000000D03*
X150150000Y-78800000D03*
X150150000Y-79600000D03*
X150150000Y-80400000D03*
X150150000Y-81200000D03*
X150150000Y-82000000D03*
X150150000Y-82800000D03*
X150150000Y-83600000D03*
X150150000Y-84400000D03*
X150150000Y-85200000D03*
X150150000Y-86000000D03*
X150150000Y-86800000D03*
X150150000Y-87600000D03*
X150150000Y-88400000D03*
X150150000Y-89200000D03*
X150150000Y-90000000D03*
X138650000Y-90000000D03*
X138650000Y-89200000D03*
X138650000Y-88400000D03*
X138650000Y-87600000D03*
X138650000Y-86800000D03*
X138650000Y-86000000D03*
X138650000Y-85200000D03*
X138650000Y-84400000D03*
X138650000Y-83600000D03*
X138650000Y-82800000D03*
X138650000Y-82000000D03*
X138650000Y-81200000D03*
X138650000Y-80400000D03*
X138650000Y-79600000D03*
X138650000Y-78800000D03*
X138650000Y-78000000D03*
X138650000Y-77200000D03*
X138650000Y-76400000D03*
X138650000Y-75600000D03*
X138650000Y-74800000D03*
X138650000Y-74000000D03*
X138650000Y-73200000D03*
X138650000Y-72400000D03*
X138650000Y-71600000D03*
X138650000Y-70800000D03*
X138650000Y-70000000D03*
X138650000Y-69200000D03*
%TD*%
%TO.C,IC3*%
G36*
G01*
X142625000Y-63925000D02*
X142825000Y-63925000D01*
G75*
G02*
X142925000Y-64025000I0J-100000D01*
G01*
X142925000Y-65300000D01*
G75*
G02*
X142825000Y-65400000I-100000J0D01*
G01*
X142625000Y-65400000D01*
G75*
G02*
X142525000Y-65300000I0J100000D01*
G01*
X142525000Y-64025000D01*
G75*
G02*
X142625000Y-63925000I100000J0D01*
G01*
G37*
G36*
G01*
X141975000Y-63925000D02*
X142175000Y-63925000D01*
G75*
G02*
X142275000Y-64025000I0J-100000D01*
G01*
X142275000Y-65300000D01*
G75*
G02*
X142175000Y-65400000I-100000J0D01*
G01*
X141975000Y-65400000D01*
G75*
G02*
X141875000Y-65300000I0J100000D01*
G01*
X141875000Y-64025000D01*
G75*
G02*
X141975000Y-63925000I100000J0D01*
G01*
G37*
G36*
G01*
X141325000Y-63925000D02*
X141525000Y-63925000D01*
G75*
G02*
X141625000Y-64025000I0J-100000D01*
G01*
X141625000Y-65300000D01*
G75*
G02*
X141525000Y-65400000I-100000J0D01*
G01*
X141325000Y-65400000D01*
G75*
G02*
X141225000Y-65300000I0J100000D01*
G01*
X141225000Y-64025000D01*
G75*
G02*
X141325000Y-63925000I100000J0D01*
G01*
G37*
G36*
G01*
X140675000Y-63925000D02*
X140875000Y-63925000D01*
G75*
G02*
X140975000Y-64025000I0J-100000D01*
G01*
X140975000Y-65300000D01*
G75*
G02*
X140875000Y-65400000I-100000J0D01*
G01*
X140675000Y-65400000D01*
G75*
G02*
X140575000Y-65300000I0J100000D01*
G01*
X140575000Y-64025000D01*
G75*
G02*
X140675000Y-63925000I100000J0D01*
G01*
G37*
G36*
G01*
X140025000Y-63925000D02*
X140225000Y-63925000D01*
G75*
G02*
X140325000Y-64025000I0J-100000D01*
G01*
X140325000Y-65300000D01*
G75*
G02*
X140225000Y-65400000I-100000J0D01*
G01*
X140025000Y-65400000D01*
G75*
G02*
X139925000Y-65300000I0J100000D01*
G01*
X139925000Y-64025000D01*
G75*
G02*
X140025000Y-63925000I100000J0D01*
G01*
G37*
G36*
G01*
X139375000Y-63925000D02*
X139575000Y-63925000D01*
G75*
G02*
X139675000Y-64025000I0J-100000D01*
G01*
X139675000Y-65300000D01*
G75*
G02*
X139575000Y-65400000I-100000J0D01*
G01*
X139375000Y-65400000D01*
G75*
G02*
X139275000Y-65300000I0J100000D01*
G01*
X139275000Y-64025000D01*
G75*
G02*
X139375000Y-63925000I100000J0D01*
G01*
G37*
G36*
G01*
X138725000Y-63925000D02*
X138925000Y-63925000D01*
G75*
G02*
X139025000Y-64025000I0J-100000D01*
G01*
X139025000Y-65300000D01*
G75*
G02*
X138925000Y-65400000I-100000J0D01*
G01*
X138725000Y-65400000D01*
G75*
G02*
X138625000Y-65300000I0J100000D01*
G01*
X138625000Y-64025000D01*
G75*
G02*
X138725000Y-63925000I100000J0D01*
G01*
G37*
G36*
G01*
X138075000Y-63925000D02*
X138275000Y-63925000D01*
G75*
G02*
X138375000Y-64025000I0J-100000D01*
G01*
X138375000Y-65300000D01*
G75*
G02*
X138275000Y-65400000I-100000J0D01*
G01*
X138075000Y-65400000D01*
G75*
G02*
X137975000Y-65300000I0J100000D01*
G01*
X137975000Y-64025000D01*
G75*
G02*
X138075000Y-63925000I100000J0D01*
G01*
G37*
G36*
G01*
X137425000Y-63925000D02*
X137625000Y-63925000D01*
G75*
G02*
X137725000Y-64025000I0J-100000D01*
G01*
X137725000Y-65300000D01*
G75*
G02*
X137625000Y-65400000I-100000J0D01*
G01*
X137425000Y-65400000D01*
G75*
G02*
X137325000Y-65300000I0J100000D01*
G01*
X137325000Y-64025000D01*
G75*
G02*
X137425000Y-63925000I100000J0D01*
G01*
G37*
G36*
G01*
X136775000Y-63925000D02*
X136975000Y-63925000D01*
G75*
G02*
X137075000Y-64025000I0J-100000D01*
G01*
X137075000Y-65300000D01*
G75*
G02*
X136975000Y-65400000I-100000J0D01*
G01*
X136775000Y-65400000D01*
G75*
G02*
X136675000Y-65300000I0J100000D01*
G01*
X136675000Y-64025000D01*
G75*
G02*
X136775000Y-63925000I100000J0D01*
G01*
G37*
G36*
G01*
X136775000Y-58200000D02*
X136975000Y-58200000D01*
G75*
G02*
X137075000Y-58300000I0J-100000D01*
G01*
X137075000Y-59575000D01*
G75*
G02*
X136975000Y-59675000I-100000J0D01*
G01*
X136775000Y-59675000D01*
G75*
G02*
X136675000Y-59575000I0J100000D01*
G01*
X136675000Y-58300000D01*
G75*
G02*
X136775000Y-58200000I100000J0D01*
G01*
G37*
G36*
G01*
X137425000Y-58200000D02*
X137625000Y-58200000D01*
G75*
G02*
X137725000Y-58300000I0J-100000D01*
G01*
X137725000Y-59575000D01*
G75*
G02*
X137625000Y-59675000I-100000J0D01*
G01*
X137425000Y-59675000D01*
G75*
G02*
X137325000Y-59575000I0J100000D01*
G01*
X137325000Y-58300000D01*
G75*
G02*
X137425000Y-58200000I100000J0D01*
G01*
G37*
G36*
G01*
X138075000Y-58200000D02*
X138275000Y-58200000D01*
G75*
G02*
X138375000Y-58300000I0J-100000D01*
G01*
X138375000Y-59575000D01*
G75*
G02*
X138275000Y-59675000I-100000J0D01*
G01*
X138075000Y-59675000D01*
G75*
G02*
X137975000Y-59575000I0J100000D01*
G01*
X137975000Y-58300000D01*
G75*
G02*
X138075000Y-58200000I100000J0D01*
G01*
G37*
G36*
G01*
X138725000Y-58200000D02*
X138925000Y-58200000D01*
G75*
G02*
X139025000Y-58300000I0J-100000D01*
G01*
X139025000Y-59575000D01*
G75*
G02*
X138925000Y-59675000I-100000J0D01*
G01*
X138725000Y-59675000D01*
G75*
G02*
X138625000Y-59575000I0J100000D01*
G01*
X138625000Y-58300000D01*
G75*
G02*
X138725000Y-58200000I100000J0D01*
G01*
G37*
G36*
G01*
X139375000Y-58200000D02*
X139575000Y-58200000D01*
G75*
G02*
X139675000Y-58300000I0J-100000D01*
G01*
X139675000Y-59575000D01*
G75*
G02*
X139575000Y-59675000I-100000J0D01*
G01*
X139375000Y-59675000D01*
G75*
G02*
X139275000Y-59575000I0J100000D01*
G01*
X139275000Y-58300000D01*
G75*
G02*
X139375000Y-58200000I100000J0D01*
G01*
G37*
G36*
G01*
X140025000Y-58200000D02*
X140225000Y-58200000D01*
G75*
G02*
X140325000Y-58300000I0J-100000D01*
G01*
X140325000Y-59575000D01*
G75*
G02*
X140225000Y-59675000I-100000J0D01*
G01*
X140025000Y-59675000D01*
G75*
G02*
X139925000Y-59575000I0J100000D01*
G01*
X139925000Y-58300000D01*
G75*
G02*
X140025000Y-58200000I100000J0D01*
G01*
G37*
G36*
G01*
X140675000Y-58200000D02*
X140875000Y-58200000D01*
G75*
G02*
X140975000Y-58300000I0J-100000D01*
G01*
X140975000Y-59575000D01*
G75*
G02*
X140875000Y-59675000I-100000J0D01*
G01*
X140675000Y-59675000D01*
G75*
G02*
X140575000Y-59575000I0J100000D01*
G01*
X140575000Y-58300000D01*
G75*
G02*
X140675000Y-58200000I100000J0D01*
G01*
G37*
G36*
G01*
X141325000Y-58200000D02*
X141525000Y-58200000D01*
G75*
G02*
X141625000Y-58300000I0J-100000D01*
G01*
X141625000Y-59575000D01*
G75*
G02*
X141525000Y-59675000I-100000J0D01*
G01*
X141325000Y-59675000D01*
G75*
G02*
X141225000Y-59575000I0J100000D01*
G01*
X141225000Y-58300000D01*
G75*
G02*
X141325000Y-58200000I100000J0D01*
G01*
G37*
G36*
G01*
X141975000Y-58200000D02*
X142175000Y-58200000D01*
G75*
G02*
X142275000Y-58300000I0J-100000D01*
G01*
X142275000Y-59575000D01*
G75*
G02*
X142175000Y-59675000I-100000J0D01*
G01*
X141975000Y-59675000D01*
G75*
G02*
X141875000Y-59575000I0J100000D01*
G01*
X141875000Y-58300000D01*
G75*
G02*
X141975000Y-58200000I100000J0D01*
G01*
G37*
G36*
G01*
X142625000Y-58200000D02*
X142825000Y-58200000D01*
G75*
G02*
X142925000Y-58300000I0J-100000D01*
G01*
X142925000Y-59575000D01*
G75*
G02*
X142825000Y-59675000I-100000J0D01*
G01*
X142625000Y-59675000D01*
G75*
G02*
X142525000Y-59575000I0J100000D01*
G01*
X142525000Y-58300000D01*
G75*
G02*
X142625000Y-58200000I100000J0D01*
G01*
G37*
%TD*%
%TO.C,IC2*%
G36*
G01*
X150425000Y-63925000D02*
X150625000Y-63925000D01*
G75*
G02*
X150725000Y-64025000I0J-100000D01*
G01*
X150725000Y-65300000D01*
G75*
G02*
X150625000Y-65400000I-100000J0D01*
G01*
X150425000Y-65400000D01*
G75*
G02*
X150325000Y-65300000I0J100000D01*
G01*
X150325000Y-64025000D01*
G75*
G02*
X150425000Y-63925000I100000J0D01*
G01*
G37*
G36*
G01*
X149775000Y-63925000D02*
X149975000Y-63925000D01*
G75*
G02*
X150075000Y-64025000I0J-100000D01*
G01*
X150075000Y-65300000D01*
G75*
G02*
X149975000Y-65400000I-100000J0D01*
G01*
X149775000Y-65400000D01*
G75*
G02*
X149675000Y-65300000I0J100000D01*
G01*
X149675000Y-64025000D01*
G75*
G02*
X149775000Y-63925000I100000J0D01*
G01*
G37*
G36*
G01*
X149125000Y-63925000D02*
X149325000Y-63925000D01*
G75*
G02*
X149425000Y-64025000I0J-100000D01*
G01*
X149425000Y-65300000D01*
G75*
G02*
X149325000Y-65400000I-100000J0D01*
G01*
X149125000Y-65400000D01*
G75*
G02*
X149025000Y-65300000I0J100000D01*
G01*
X149025000Y-64025000D01*
G75*
G02*
X149125000Y-63925000I100000J0D01*
G01*
G37*
G36*
G01*
X148475000Y-63925000D02*
X148675000Y-63925000D01*
G75*
G02*
X148775000Y-64025000I0J-100000D01*
G01*
X148775000Y-65300000D01*
G75*
G02*
X148675000Y-65400000I-100000J0D01*
G01*
X148475000Y-65400000D01*
G75*
G02*
X148375000Y-65300000I0J100000D01*
G01*
X148375000Y-64025000D01*
G75*
G02*
X148475000Y-63925000I100000J0D01*
G01*
G37*
G36*
G01*
X147825000Y-63925000D02*
X148025000Y-63925000D01*
G75*
G02*
X148125000Y-64025000I0J-100000D01*
G01*
X148125000Y-65300000D01*
G75*
G02*
X148025000Y-65400000I-100000J0D01*
G01*
X147825000Y-65400000D01*
G75*
G02*
X147725000Y-65300000I0J100000D01*
G01*
X147725000Y-64025000D01*
G75*
G02*
X147825000Y-63925000I100000J0D01*
G01*
G37*
G36*
G01*
X147175000Y-63925000D02*
X147375000Y-63925000D01*
G75*
G02*
X147475000Y-64025000I0J-100000D01*
G01*
X147475000Y-65300000D01*
G75*
G02*
X147375000Y-65400000I-100000J0D01*
G01*
X147175000Y-65400000D01*
G75*
G02*
X147075000Y-65300000I0J100000D01*
G01*
X147075000Y-64025000D01*
G75*
G02*
X147175000Y-63925000I100000J0D01*
G01*
G37*
G36*
G01*
X146525000Y-63925000D02*
X146725000Y-63925000D01*
G75*
G02*
X146825000Y-64025000I0J-100000D01*
G01*
X146825000Y-65300000D01*
G75*
G02*
X146725000Y-65400000I-100000J0D01*
G01*
X146525000Y-65400000D01*
G75*
G02*
X146425000Y-65300000I0J100000D01*
G01*
X146425000Y-64025000D01*
G75*
G02*
X146525000Y-63925000I100000J0D01*
G01*
G37*
G36*
G01*
X145875000Y-63925000D02*
X146075000Y-63925000D01*
G75*
G02*
X146175000Y-64025000I0J-100000D01*
G01*
X146175000Y-65300000D01*
G75*
G02*
X146075000Y-65400000I-100000J0D01*
G01*
X145875000Y-65400000D01*
G75*
G02*
X145775000Y-65300000I0J100000D01*
G01*
X145775000Y-64025000D01*
G75*
G02*
X145875000Y-63925000I100000J0D01*
G01*
G37*
G36*
G01*
X145225000Y-63925000D02*
X145425000Y-63925000D01*
G75*
G02*
X145525000Y-64025000I0J-100000D01*
G01*
X145525000Y-65300000D01*
G75*
G02*
X145425000Y-65400000I-100000J0D01*
G01*
X145225000Y-65400000D01*
G75*
G02*
X145125000Y-65300000I0J100000D01*
G01*
X145125000Y-64025000D01*
G75*
G02*
X145225000Y-63925000I100000J0D01*
G01*
G37*
G36*
G01*
X144575000Y-63925000D02*
X144775000Y-63925000D01*
G75*
G02*
X144875000Y-64025000I0J-100000D01*
G01*
X144875000Y-65300000D01*
G75*
G02*
X144775000Y-65400000I-100000J0D01*
G01*
X144575000Y-65400000D01*
G75*
G02*
X144475000Y-65300000I0J100000D01*
G01*
X144475000Y-64025000D01*
G75*
G02*
X144575000Y-63925000I100000J0D01*
G01*
G37*
G36*
G01*
X144575000Y-58200000D02*
X144775000Y-58200000D01*
G75*
G02*
X144875000Y-58300000I0J-100000D01*
G01*
X144875000Y-59575000D01*
G75*
G02*
X144775000Y-59675000I-100000J0D01*
G01*
X144575000Y-59675000D01*
G75*
G02*
X144475000Y-59575000I0J100000D01*
G01*
X144475000Y-58300000D01*
G75*
G02*
X144575000Y-58200000I100000J0D01*
G01*
G37*
G36*
G01*
X145225000Y-58200000D02*
X145425000Y-58200000D01*
G75*
G02*
X145525000Y-58300000I0J-100000D01*
G01*
X145525000Y-59575000D01*
G75*
G02*
X145425000Y-59675000I-100000J0D01*
G01*
X145225000Y-59675000D01*
G75*
G02*
X145125000Y-59575000I0J100000D01*
G01*
X145125000Y-58300000D01*
G75*
G02*
X145225000Y-58200000I100000J0D01*
G01*
G37*
G36*
G01*
X145875000Y-58200000D02*
X146075000Y-58200000D01*
G75*
G02*
X146175000Y-58300000I0J-100000D01*
G01*
X146175000Y-59575000D01*
G75*
G02*
X146075000Y-59675000I-100000J0D01*
G01*
X145875000Y-59675000D01*
G75*
G02*
X145775000Y-59575000I0J100000D01*
G01*
X145775000Y-58300000D01*
G75*
G02*
X145875000Y-58200000I100000J0D01*
G01*
G37*
G36*
G01*
X146525000Y-58200000D02*
X146725000Y-58200000D01*
G75*
G02*
X146825000Y-58300000I0J-100000D01*
G01*
X146825000Y-59575000D01*
G75*
G02*
X146725000Y-59675000I-100000J0D01*
G01*
X146525000Y-59675000D01*
G75*
G02*
X146425000Y-59575000I0J100000D01*
G01*
X146425000Y-58300000D01*
G75*
G02*
X146525000Y-58200000I100000J0D01*
G01*
G37*
G36*
G01*
X147175000Y-58200000D02*
X147375000Y-58200000D01*
G75*
G02*
X147475000Y-58300000I0J-100000D01*
G01*
X147475000Y-59575000D01*
G75*
G02*
X147375000Y-59675000I-100000J0D01*
G01*
X147175000Y-59675000D01*
G75*
G02*
X147075000Y-59575000I0J100000D01*
G01*
X147075000Y-58300000D01*
G75*
G02*
X147175000Y-58200000I100000J0D01*
G01*
G37*
G36*
G01*
X147825000Y-58200000D02*
X148025000Y-58200000D01*
G75*
G02*
X148125000Y-58300000I0J-100000D01*
G01*
X148125000Y-59575000D01*
G75*
G02*
X148025000Y-59675000I-100000J0D01*
G01*
X147825000Y-59675000D01*
G75*
G02*
X147725000Y-59575000I0J100000D01*
G01*
X147725000Y-58300000D01*
G75*
G02*
X147825000Y-58200000I100000J0D01*
G01*
G37*
G36*
G01*
X148475000Y-58200000D02*
X148675000Y-58200000D01*
G75*
G02*
X148775000Y-58300000I0J-100000D01*
G01*
X148775000Y-59575000D01*
G75*
G02*
X148675000Y-59675000I-100000J0D01*
G01*
X148475000Y-59675000D01*
G75*
G02*
X148375000Y-59575000I0J100000D01*
G01*
X148375000Y-58300000D01*
G75*
G02*
X148475000Y-58200000I100000J0D01*
G01*
G37*
G36*
G01*
X149125000Y-58200000D02*
X149325000Y-58200000D01*
G75*
G02*
X149425000Y-58300000I0J-100000D01*
G01*
X149425000Y-59575000D01*
G75*
G02*
X149325000Y-59675000I-100000J0D01*
G01*
X149125000Y-59675000D01*
G75*
G02*
X149025000Y-59575000I0J100000D01*
G01*
X149025000Y-58300000D01*
G75*
G02*
X149125000Y-58200000I100000J0D01*
G01*
G37*
G36*
G01*
X149775000Y-58200000D02*
X149975000Y-58200000D01*
G75*
G02*
X150075000Y-58300000I0J-100000D01*
G01*
X150075000Y-59575000D01*
G75*
G02*
X149975000Y-59675000I-100000J0D01*
G01*
X149775000Y-59675000D01*
G75*
G02*
X149675000Y-59575000I0J100000D01*
G01*
X149675000Y-58300000D01*
G75*
G02*
X149775000Y-58200000I100000J0D01*
G01*
G37*
G36*
G01*
X150425000Y-58200000D02*
X150625000Y-58200000D01*
G75*
G02*
X150725000Y-58300000I0J-100000D01*
G01*
X150725000Y-59575000D01*
G75*
G02*
X150625000Y-59675000I-100000J0D01*
G01*
X150425000Y-59675000D01*
G75*
G02*
X150325000Y-59575000I0J100000D01*
G01*
X150325000Y-58300000D01*
G75*
G02*
X150425000Y-58200000I100000J0D01*
G01*
G37*
%TD*%
M02*
