%TF.GenerationSoftware,KiCad,Pcbnew,(5.1.10-1-10_14)*%
%TF.CreationDate,2022-03-12T11:50:30+00:00*%
%TF.ProjectId,altram_68k_r2,616c7472-616d-45f3-9638-6b5f72322e6b,2*%
%TF.SameCoordinates,Original*%
%TF.FileFunction,Legend,Top*%
%TF.FilePolarity,Positive*%
%FSLAX46Y46*%
G04 Gerber Fmt 4.6, Leading zero omitted, Abs format (unit mm)*
G04 Created by KiCad (PCBNEW (5.1.10-1-10_14)) date 2022-03-12 11:50:30*
%MOMM*%
%LPD*%
G01*
G04 APERTURE LIST*
%ADD10C,0.125000*%
%ADD11C,0.120000*%
%ADD12C,0.150000*%
G04 APERTURE END LIST*
D10*
X156095238Y-54602380D02*
X156166666Y-54626190D01*
X156285714Y-54626190D01*
X156333333Y-54602380D01*
X156357142Y-54578571D01*
X156380952Y-54530952D01*
X156380952Y-54483333D01*
X156357142Y-54435714D01*
X156333333Y-54411904D01*
X156285714Y-54388095D01*
X156190476Y-54364285D01*
X156142857Y-54340476D01*
X156119047Y-54316666D01*
X156095238Y-54269047D01*
X156095238Y-54221428D01*
X156119047Y-54173809D01*
X156142857Y-54150000D01*
X156190476Y-54126190D01*
X156309523Y-54126190D01*
X156380952Y-54150000D01*
X156690476Y-54126190D02*
X156785714Y-54126190D01*
X156833333Y-54150000D01*
X156880952Y-54197619D01*
X156904761Y-54292857D01*
X156904761Y-54459523D01*
X156880952Y-54554761D01*
X156833333Y-54602380D01*
X156785714Y-54626190D01*
X156690476Y-54626190D01*
X156642857Y-54602380D01*
X156595238Y-54554761D01*
X156571428Y-54459523D01*
X156571428Y-54292857D01*
X156595238Y-54197619D01*
X156642857Y-54150000D01*
X156690476Y-54126190D01*
X157404761Y-54578571D02*
X157380952Y-54602380D01*
X157309523Y-54626190D01*
X157261904Y-54626190D01*
X157190476Y-54602380D01*
X157142857Y-54554761D01*
X157119047Y-54507142D01*
X157095238Y-54411904D01*
X157095238Y-54340476D01*
X157119047Y-54245238D01*
X157142857Y-54197619D01*
X157190476Y-54150000D01*
X157261904Y-54126190D01*
X157309523Y-54126190D01*
X157380952Y-54150000D01*
X157404761Y-54173809D01*
X157619047Y-54626190D02*
X157619047Y-54126190D01*
X157904761Y-54626190D02*
X157690476Y-54340476D01*
X157904761Y-54126190D02*
X157619047Y-54411904D01*
X133195238Y-54602380D02*
X133266666Y-54626190D01*
X133385714Y-54626190D01*
X133433333Y-54602380D01*
X133457142Y-54578571D01*
X133480952Y-54530952D01*
X133480952Y-54483333D01*
X133457142Y-54435714D01*
X133433333Y-54411904D01*
X133385714Y-54388095D01*
X133290476Y-54364285D01*
X133242857Y-54340476D01*
X133219047Y-54316666D01*
X133195238Y-54269047D01*
X133195238Y-54221428D01*
X133219047Y-54173809D01*
X133242857Y-54150000D01*
X133290476Y-54126190D01*
X133409523Y-54126190D01*
X133480952Y-54150000D01*
X133790476Y-54126190D02*
X133885714Y-54126190D01*
X133933333Y-54150000D01*
X133980952Y-54197619D01*
X134004761Y-54292857D01*
X134004761Y-54459523D01*
X133980952Y-54554761D01*
X133933333Y-54602380D01*
X133885714Y-54626190D01*
X133790476Y-54626190D01*
X133742857Y-54602380D01*
X133695238Y-54554761D01*
X133671428Y-54459523D01*
X133671428Y-54292857D01*
X133695238Y-54197619D01*
X133742857Y-54150000D01*
X133790476Y-54126190D01*
X134504761Y-54578571D02*
X134480952Y-54602380D01*
X134409523Y-54626190D01*
X134361904Y-54626190D01*
X134290476Y-54602380D01*
X134242857Y-54554761D01*
X134219047Y-54507142D01*
X134195238Y-54411904D01*
X134195238Y-54340476D01*
X134219047Y-54245238D01*
X134242857Y-54197619D01*
X134290476Y-54150000D01*
X134361904Y-54126190D01*
X134409523Y-54126190D01*
X134480952Y-54150000D01*
X134504761Y-54173809D01*
X134719047Y-54626190D02*
X134719047Y-54126190D01*
X135004761Y-54626190D02*
X134790476Y-54340476D01*
X135004761Y-54126190D02*
X134719047Y-54411904D01*
X153650000Y-54626190D02*
X153650000Y-54126190D01*
X153840476Y-54126190D01*
X153888095Y-54150000D01*
X153911904Y-54173809D01*
X153935714Y-54221428D01*
X153935714Y-54292857D01*
X153911904Y-54340476D01*
X153888095Y-54364285D01*
X153840476Y-54388095D01*
X153650000Y-54388095D01*
X154150000Y-54626190D02*
X154150000Y-54126190D01*
X154388095Y-54626190D02*
X154388095Y-54126190D01*
X154673809Y-54626190D01*
X154673809Y-54126190D01*
X154888095Y-54602380D02*
X154959523Y-54626190D01*
X155078571Y-54626190D01*
X155126190Y-54602380D01*
X155150000Y-54578571D01*
X155173809Y-54530952D01*
X155173809Y-54483333D01*
X155150000Y-54435714D01*
X155126190Y-54411904D01*
X155078571Y-54388095D01*
X154983333Y-54364285D01*
X154935714Y-54340476D01*
X154911904Y-54316666D01*
X154888095Y-54269047D01*
X154888095Y-54221428D01*
X154911904Y-54173809D01*
X154935714Y-54150000D01*
X154983333Y-54126190D01*
X155102380Y-54126190D01*
X155173809Y-54150000D01*
X130800000Y-54626190D02*
X130800000Y-54126190D01*
X130990476Y-54126190D01*
X131038095Y-54150000D01*
X131061904Y-54173809D01*
X131085714Y-54221428D01*
X131085714Y-54292857D01*
X131061904Y-54340476D01*
X131038095Y-54364285D01*
X130990476Y-54388095D01*
X130800000Y-54388095D01*
X131300000Y-54626190D02*
X131300000Y-54126190D01*
X131538095Y-54626190D02*
X131538095Y-54126190D01*
X131823809Y-54626190D01*
X131823809Y-54126190D01*
X132038095Y-54602380D02*
X132109523Y-54626190D01*
X132228571Y-54626190D01*
X132276190Y-54602380D01*
X132300000Y-54578571D01*
X132323809Y-54530952D01*
X132323809Y-54483333D01*
X132300000Y-54435714D01*
X132276190Y-54411904D01*
X132228571Y-54388095D01*
X132133333Y-54364285D01*
X132085714Y-54340476D01*
X132061904Y-54316666D01*
X132038095Y-54269047D01*
X132038095Y-54221428D01*
X132061904Y-54173809D01*
X132085714Y-54150000D01*
X132133333Y-54126190D01*
X132252380Y-54126190D01*
X132323809Y-54150000D01*
X150326190Y-132919047D02*
X150326190Y-132609523D01*
X150516666Y-132776190D01*
X150516666Y-132704761D01*
X150540476Y-132657142D01*
X150564285Y-132633333D01*
X150611904Y-132609523D01*
X150730952Y-132609523D01*
X150778571Y-132633333D01*
X150802380Y-132657142D01*
X150826190Y-132704761D01*
X150826190Y-132847619D01*
X150802380Y-132895238D01*
X150778571Y-132919047D01*
X150326190Y-132466666D02*
X150826190Y-132300000D01*
X150326190Y-132133333D01*
X150326190Y-132014285D02*
X150326190Y-131704761D01*
X150516666Y-131871428D01*
X150516666Y-131800000D01*
X150540476Y-131752380D01*
X150564285Y-131728571D01*
X150611904Y-131704761D01*
X150730952Y-131704761D01*
X150778571Y-131728571D01*
X150802380Y-131752380D01*
X150826190Y-131800000D01*
X150826190Y-131942857D01*
X150802380Y-131990476D01*
X150778571Y-132014285D01*
X147750000Y-132680952D02*
X147726190Y-132728571D01*
X147726190Y-132800000D01*
X147750000Y-132871428D01*
X147797619Y-132919047D01*
X147845238Y-132942857D01*
X147940476Y-132966666D01*
X148011904Y-132966666D01*
X148107142Y-132942857D01*
X148154761Y-132919047D01*
X148202380Y-132871428D01*
X148226190Y-132800000D01*
X148226190Y-132752380D01*
X148202380Y-132680952D01*
X148178571Y-132657142D01*
X148011904Y-132657142D01*
X148011904Y-132752380D01*
X148226190Y-132442857D02*
X147726190Y-132442857D01*
X148226190Y-132157142D01*
X147726190Y-132157142D01*
X148226190Y-131919047D02*
X147726190Y-131919047D01*
X147726190Y-131800000D01*
X147750000Y-131728571D01*
X147797619Y-131680952D01*
X147845238Y-131657142D01*
X147940476Y-131633333D01*
X148011904Y-131633333D01*
X148107142Y-131657142D01*
X148154761Y-131680952D01*
X148202380Y-131728571D01*
X148226190Y-131800000D01*
X148226190Y-131919047D01*
X145226190Y-132942857D02*
X145226190Y-132657142D01*
X145726190Y-132800000D02*
X145226190Y-132800000D01*
X145678571Y-132204761D02*
X145702380Y-132228571D01*
X145726190Y-132300000D01*
X145726190Y-132347619D01*
X145702380Y-132419047D01*
X145654761Y-132466666D01*
X145607142Y-132490476D01*
X145511904Y-132514285D01*
X145440476Y-132514285D01*
X145345238Y-132490476D01*
X145297619Y-132466666D01*
X145250000Y-132419047D01*
X145226190Y-132347619D01*
X145226190Y-132300000D01*
X145250000Y-132228571D01*
X145273809Y-132204761D01*
X145726190Y-131990476D02*
X145226190Y-131990476D01*
X145726190Y-131704761D02*
X145440476Y-131919047D01*
X145226190Y-131704761D02*
X145511904Y-131990476D01*
X142626190Y-132954761D02*
X142626190Y-132669047D01*
X143126190Y-132811904D02*
X142626190Y-132811904D01*
X143126190Y-132502380D02*
X142626190Y-132502380D01*
X142626190Y-132383333D01*
X142650000Y-132311904D01*
X142697619Y-132264285D01*
X142745238Y-132240476D01*
X142840476Y-132216666D01*
X142911904Y-132216666D01*
X143007142Y-132240476D01*
X143054761Y-132264285D01*
X143102380Y-132311904D01*
X143126190Y-132383333D01*
X143126190Y-132502380D01*
X142626190Y-131907142D02*
X142626190Y-131811904D01*
X142650000Y-131764285D01*
X142697619Y-131716666D01*
X142792857Y-131692857D01*
X142959523Y-131692857D01*
X143054761Y-131716666D01*
X143102380Y-131764285D01*
X143126190Y-131811904D01*
X143126190Y-131907142D01*
X143102380Y-131954761D01*
X143054761Y-132002380D01*
X142959523Y-132026190D01*
X142792857Y-132026190D01*
X142697619Y-132002380D01*
X142650000Y-131954761D01*
X142626190Y-131907142D01*
X140126190Y-132811904D02*
X140126190Y-132526190D01*
X140626190Y-132669047D02*
X140126190Y-132669047D01*
X140626190Y-132359523D02*
X140126190Y-132359523D01*
X140126190Y-132240476D01*
X140150000Y-132169047D01*
X140197619Y-132121428D01*
X140245238Y-132097619D01*
X140340476Y-132073809D01*
X140411904Y-132073809D01*
X140507142Y-132097619D01*
X140554761Y-132121428D01*
X140602380Y-132169047D01*
X140626190Y-132240476D01*
X140626190Y-132359523D01*
X140626190Y-131859523D02*
X140126190Y-131859523D01*
X137626190Y-132966666D02*
X137626190Y-132680952D01*
X138126190Y-132823809D02*
X137626190Y-132823809D01*
X138126190Y-132514285D02*
X137626190Y-132514285D01*
X137983333Y-132347619D01*
X137626190Y-132180952D01*
X138126190Y-132180952D01*
X138102380Y-131966666D02*
X138126190Y-131895238D01*
X138126190Y-131776190D01*
X138102380Y-131728571D01*
X138078571Y-131704761D01*
X138030952Y-131680952D01*
X137983333Y-131680952D01*
X137935714Y-131704761D01*
X137911904Y-131728571D01*
X137888095Y-131776190D01*
X137864285Y-131871428D01*
X137840476Y-131919047D01*
X137816666Y-131942857D01*
X137769047Y-131966666D01*
X137721428Y-131966666D01*
X137673809Y-131942857D01*
X137650000Y-131919047D01*
X137626190Y-131871428D01*
X137626190Y-131752380D01*
X137650000Y-131680952D01*
D11*
%TO.C,D1*%
X149410000Y-128300000D02*
X149410000Y-125440000D01*
X149410000Y-125440000D02*
X147490000Y-125440000D01*
X147490000Y-125440000D02*
X147490000Y-128300000D01*
%TO.C,JP1*%
X150600000Y-117800000D02*
X150600000Y-120600000D01*
X149900000Y-121250000D02*
X149300000Y-121250000D01*
X148600000Y-120600000D02*
X148600000Y-117800000D01*
X149300000Y-117150000D02*
X149900000Y-117150000D01*
X148400000Y-118000000D02*
X148100000Y-117700000D01*
X148100000Y-117700000D02*
X148100000Y-118300000D01*
X148400000Y-118000000D02*
X148100000Y-118300000D01*
X149900000Y-117150000D02*
G75*
G02*
X150600000Y-117850000I0J-700000D01*
G01*
X148600000Y-117850000D02*
G75*
G02*
X149300000Y-117150000I700000J0D01*
G01*
X149300000Y-121250000D02*
G75*
G02*
X148600000Y-120550000I0J700000D01*
G01*
X150600000Y-120550000D02*
G75*
G02*
X149900000Y-121250000I-700000J0D01*
G01*
%TO.C,U3*%
X137190000Y-97790000D02*
X135900000Y-97790000D01*
X137190000Y-97090000D02*
X137190000Y-97790000D01*
X137890000Y-97090000D02*
X137190000Y-97090000D01*
X151410000Y-97090000D02*
X151410000Y-97790000D01*
X150710000Y-97090000D02*
X151410000Y-97090000D01*
X137190000Y-111310000D02*
X137190000Y-110610000D01*
X137890000Y-111310000D02*
X137190000Y-111310000D01*
X151410000Y-111310000D02*
X151410000Y-110610000D01*
X150710000Y-111310000D02*
X151410000Y-111310000D01*
%TO.C,U1*%
X153272000Y-54296000D02*
X144002000Y-54296000D01*
X153272000Y-135696000D02*
X153272000Y-54296000D01*
X132732000Y-135696000D02*
X153272000Y-135696000D01*
X132732000Y-54296000D02*
X132732000Y-135696000D01*
X142002000Y-54296000D02*
X132732000Y-54296000D01*
X144002000Y-54296000D02*
G75*
G02*
X142002000Y-54296000I-1000000J0D01*
G01*
%TO.C,U2*%
X144542000Y-54296000D02*
X135272000Y-54296000D01*
X135272000Y-54296000D02*
X135272000Y-135696000D01*
X135272000Y-135696000D02*
X155812000Y-135696000D01*
X155812000Y-135696000D02*
X155812000Y-54296000D01*
X155812000Y-54296000D02*
X146542000Y-54296000D01*
X132782000Y-54236000D02*
X132782000Y-135756000D01*
X132782000Y-135756000D02*
X158302000Y-135756000D01*
X158302000Y-135756000D02*
X158302000Y-54236000D01*
X158302000Y-54236000D02*
X132782000Y-54236000D01*
X146542000Y-54296000D02*
G75*
G02*
X144542000Y-54296000I-1000000J0D01*
G01*
%TO.C,TP5*%
X143000000Y-127400000D02*
X144400000Y-127400000D01*
X143000000Y-128800000D02*
X143000000Y-127400000D01*
X144400000Y-128800000D02*
X143000000Y-128800000D01*
X144400000Y-127400000D02*
X144400000Y-128800000D01*
%TO.C,TP4*%
X143000000Y-125300000D02*
X144400000Y-125300000D01*
X143000000Y-126700000D02*
X143000000Y-125300000D01*
X144400000Y-126700000D02*
X143000000Y-126700000D01*
X144400000Y-125300000D02*
X144400000Y-126700000D01*
%TO.C,TP3*%
X142350000Y-126700000D02*
X140950000Y-126700000D01*
X142350000Y-125300000D02*
X142350000Y-126700000D01*
X140950000Y-125300000D02*
X142350000Y-125300000D01*
X140950000Y-126700000D02*
X140950000Y-125300000D01*
%TO.C,TP2*%
X142350000Y-128800000D02*
X140950000Y-128800000D01*
X142350000Y-127400000D02*
X142350000Y-128800000D01*
X140950000Y-127400000D02*
X142350000Y-127400000D01*
X140950000Y-128800000D02*
X140950000Y-127400000D01*
%TO.C,TP1*%
X142350000Y-130900000D02*
X140950000Y-130900000D01*
X142350000Y-129500000D02*
X142350000Y-130900000D01*
X140950000Y-129500000D02*
X142350000Y-129500000D01*
X140950000Y-130900000D02*
X140950000Y-129500000D01*
%TO.C,J1*%
X151870000Y-132930000D02*
X151870000Y-134200000D01*
X150600000Y-132930000D02*
X151870000Y-132930000D01*
X137520000Y-135242929D02*
X137520000Y-135640000D01*
X138280000Y-135242929D02*
X138280000Y-135640000D01*
X137520000Y-144300000D02*
X137520000Y-138300000D01*
X138280000Y-144300000D02*
X137520000Y-144300000D01*
X138280000Y-138300000D02*
X138280000Y-144300000D01*
X139170000Y-135640000D02*
X139170000Y-138300000D01*
X140060000Y-135242929D02*
X140060000Y-135640000D01*
X140820000Y-135242929D02*
X140820000Y-135640000D01*
X140060000Y-144300000D02*
X140060000Y-138300000D01*
X140820000Y-144300000D02*
X140060000Y-144300000D01*
X140820000Y-138300000D02*
X140820000Y-144300000D01*
X141710000Y-135640000D02*
X141710000Y-138300000D01*
X142600000Y-135242929D02*
X142600000Y-135640000D01*
X143360000Y-135242929D02*
X143360000Y-135640000D01*
X142600000Y-144300000D02*
X142600000Y-138300000D01*
X143360000Y-144300000D02*
X142600000Y-144300000D01*
X143360000Y-138300000D02*
X143360000Y-144300000D01*
X144250000Y-135640000D02*
X144250000Y-138300000D01*
X145140000Y-135242929D02*
X145140000Y-135640000D01*
X145900000Y-135242929D02*
X145900000Y-135640000D01*
X145140000Y-144300000D02*
X145140000Y-138300000D01*
X145900000Y-144300000D02*
X145140000Y-144300000D01*
X145900000Y-138300000D02*
X145900000Y-144300000D01*
X146790000Y-135640000D02*
X146790000Y-138300000D01*
X147680000Y-135242929D02*
X147680000Y-135640000D01*
X148440000Y-135242929D02*
X148440000Y-135640000D01*
X147680000Y-144300000D02*
X147680000Y-138300000D01*
X148440000Y-144300000D02*
X147680000Y-144300000D01*
X148440000Y-138300000D02*
X148440000Y-144300000D01*
X149330000Y-135640000D02*
X149330000Y-138300000D01*
X150220000Y-135310000D02*
X150220000Y-135640000D01*
X150980000Y-135310000D02*
X150980000Y-135640000D01*
X150320000Y-138300000D02*
X150320000Y-144300000D01*
X150440000Y-138300000D02*
X150440000Y-144300000D01*
X150560000Y-138300000D02*
X150560000Y-144300000D01*
X150680000Y-138300000D02*
X150680000Y-144300000D01*
X150800000Y-138300000D02*
X150800000Y-144300000D01*
X150920000Y-138300000D02*
X150920000Y-144300000D01*
X150220000Y-144300000D02*
X150220000Y-138300000D01*
X150980000Y-144300000D02*
X150220000Y-144300000D01*
X150980000Y-138300000D02*
X150980000Y-144300000D01*
X151930000Y-138300000D02*
X151930000Y-135640000D01*
X136570000Y-138300000D02*
X151930000Y-138300000D01*
X136570000Y-135640000D02*
X136570000Y-138300000D01*
X151930000Y-135640000D02*
X136570000Y-135640000D01*
%TO.C,X1*%
X139300000Y-118860000D02*
X138700000Y-118860000D01*
X139300000Y-121740000D02*
X139300000Y-118860000D01*
X144700000Y-116350000D02*
X144700000Y-116660000D01*
X139300000Y-116350000D02*
X144700000Y-116350000D01*
X139300000Y-116660000D02*
X139300000Y-116350000D01*
X138700000Y-116660000D02*
X139300000Y-116660000D01*
X144700000Y-118860000D02*
X144700000Y-121740000D01*
X139300000Y-124250000D02*
X139300000Y-123940000D01*
X144700000Y-124250000D02*
X139300000Y-124250000D01*
X144700000Y-123940000D02*
X144700000Y-124250000D01*
%TO.C,IC1*%
X137900000Y-68700000D02*
X139100000Y-68700000D01*
X139100000Y-68700000D02*
X139100000Y-68300000D01*
X139100000Y-68300000D02*
X149700000Y-68300000D01*
X139100000Y-90900000D02*
X149700000Y-90900000D01*
X149700000Y-68300000D02*
X149700000Y-68700000D01*
X149700000Y-90500000D02*
X149700000Y-90900000D01*
X139100000Y-90500000D02*
X139100000Y-90900000D01*
%TO.C,IC3*%
X143185000Y-61800000D02*
X143185000Y-58200000D01*
X143185000Y-61800000D02*
X143185000Y-64000000D01*
X136415000Y-61800000D02*
X136415000Y-59600000D01*
X136415000Y-61800000D02*
X136415000Y-64000000D01*
%TO.C,IC2*%
X150985000Y-61800000D02*
X150985000Y-58200000D01*
X150985000Y-61800000D02*
X150985000Y-64000000D01*
X144215000Y-61800000D02*
X144215000Y-59600000D01*
X144215000Y-61800000D02*
X144215000Y-64000000D01*
%TO.C,D1*%
D12*
X150552380Y-128038095D02*
X149552380Y-128038095D01*
X149552380Y-127800000D01*
X149600000Y-127657142D01*
X149695238Y-127561904D01*
X149790476Y-127514285D01*
X149980952Y-127466666D01*
X150123809Y-127466666D01*
X150314285Y-127514285D01*
X150409523Y-127561904D01*
X150504761Y-127657142D01*
X150552380Y-127800000D01*
X150552380Y-128038095D01*
X150552380Y-126514285D02*
X150552380Y-127085714D01*
X150552380Y-126800000D02*
X149552380Y-126800000D01*
X149695238Y-126895238D01*
X149790476Y-126990476D01*
X149838095Y-127085714D01*
%TO.C,JP1*%
X147252380Y-120133333D02*
X147966666Y-120133333D01*
X148109523Y-120180952D01*
X148204761Y-120276190D01*
X148252380Y-120419047D01*
X148252380Y-120514285D01*
X148252380Y-119657142D02*
X147252380Y-119657142D01*
X147252380Y-119276190D01*
X147300000Y-119180952D01*
X147347619Y-119133333D01*
X147442857Y-119085714D01*
X147585714Y-119085714D01*
X147680952Y-119133333D01*
X147728571Y-119180952D01*
X147776190Y-119276190D01*
X147776190Y-119657142D01*
X148252380Y-118133333D02*
X148252380Y-118704761D01*
X148252380Y-118419047D02*
X147252380Y-118419047D01*
X147395238Y-118514285D01*
X147490476Y-118609523D01*
X147538095Y-118704761D01*
%TO.C,U3*%
X143538095Y-94302380D02*
X143538095Y-95111904D01*
X143585714Y-95207142D01*
X143633333Y-95254761D01*
X143728571Y-95302380D01*
X143919047Y-95302380D01*
X144014285Y-95254761D01*
X144061904Y-95207142D01*
X144109523Y-95111904D01*
X144109523Y-94302380D01*
X144490476Y-94302380D02*
X145109523Y-94302380D01*
X144776190Y-94683333D01*
X144919047Y-94683333D01*
X145014285Y-94730952D01*
X145061904Y-94778571D01*
X145109523Y-94873809D01*
X145109523Y-95111904D01*
X145061904Y-95207142D01*
X145014285Y-95254761D01*
X144919047Y-95302380D01*
X144633333Y-95302380D01*
X144538095Y-95254761D01*
X144490476Y-95207142D01*
%TO.C,U1*%
D10*
X142288095Y-55576190D02*
X142288095Y-55980952D01*
X142335714Y-56028571D01*
X142383333Y-56052380D01*
X142478571Y-56076190D01*
X142669047Y-56076190D01*
X142764285Y-56052380D01*
X142811904Y-56028571D01*
X142859523Y-55980952D01*
X142859523Y-55576190D01*
X143859523Y-56076190D02*
X143288095Y-56076190D01*
X143573809Y-56076190D02*
X143573809Y-55576190D01*
X143478571Y-55647619D01*
X143383333Y-55695238D01*
X143288095Y-55719047D01*
%TO.C,U2*%
X144788095Y-55626190D02*
X144788095Y-56030952D01*
X144835714Y-56078571D01*
X144883333Y-56102380D01*
X144978571Y-56126190D01*
X145169047Y-56126190D01*
X145264285Y-56102380D01*
X145311904Y-56078571D01*
X145359523Y-56030952D01*
X145359523Y-55626190D01*
X145788095Y-55673809D02*
X145835714Y-55650000D01*
X145930952Y-55626190D01*
X146169047Y-55626190D01*
X146264285Y-55650000D01*
X146311904Y-55673809D01*
X146359523Y-55721428D01*
X146359523Y-55769047D01*
X146311904Y-55840476D01*
X145740476Y-56126190D01*
X146359523Y-56126190D01*
%TO.C,TP5*%
D12*
X144586095Y-127552380D02*
X145157523Y-127552380D01*
X144871809Y-128552380D02*
X144871809Y-127552380D01*
X145490857Y-128552380D02*
X145490857Y-127552380D01*
X145871809Y-127552380D01*
X145967047Y-127600000D01*
X146014666Y-127647619D01*
X146062285Y-127742857D01*
X146062285Y-127885714D01*
X146014666Y-127980952D01*
X145967047Y-128028571D01*
X145871809Y-128076190D01*
X145490857Y-128076190D01*
X146967047Y-127552380D02*
X146490857Y-127552380D01*
X146443238Y-128028571D01*
X146490857Y-127980952D01*
X146586095Y-127933333D01*
X146824190Y-127933333D01*
X146919428Y-127980952D01*
X146967047Y-128028571D01*
X147014666Y-128123809D01*
X147014666Y-128361904D01*
X146967047Y-128457142D01*
X146919428Y-128504761D01*
X146824190Y-128552380D01*
X146586095Y-128552380D01*
X146490857Y-128504761D01*
X146443238Y-128457142D01*
%TO.C,TP4*%
X144586095Y-125452380D02*
X145157523Y-125452380D01*
X144871809Y-126452380D02*
X144871809Y-125452380D01*
X145490857Y-126452380D02*
X145490857Y-125452380D01*
X145871809Y-125452380D01*
X145967047Y-125500000D01*
X146014666Y-125547619D01*
X146062285Y-125642857D01*
X146062285Y-125785714D01*
X146014666Y-125880952D01*
X145967047Y-125928571D01*
X145871809Y-125976190D01*
X145490857Y-125976190D01*
X146919428Y-125785714D02*
X146919428Y-126452380D01*
X146681333Y-125404761D02*
X146443238Y-126119047D01*
X147062285Y-126119047D01*
%TO.C,TP3*%
X138240095Y-125452380D02*
X138811523Y-125452380D01*
X138525809Y-126452380D02*
X138525809Y-125452380D01*
X139144857Y-126452380D02*
X139144857Y-125452380D01*
X139525809Y-125452380D01*
X139621047Y-125500000D01*
X139668666Y-125547619D01*
X139716285Y-125642857D01*
X139716285Y-125785714D01*
X139668666Y-125880952D01*
X139621047Y-125928571D01*
X139525809Y-125976190D01*
X139144857Y-125976190D01*
X140049619Y-125452380D02*
X140668666Y-125452380D01*
X140335333Y-125833333D01*
X140478190Y-125833333D01*
X140573428Y-125880952D01*
X140621047Y-125928571D01*
X140668666Y-126023809D01*
X140668666Y-126261904D01*
X140621047Y-126357142D01*
X140573428Y-126404761D01*
X140478190Y-126452380D01*
X140192476Y-126452380D01*
X140097238Y-126404761D01*
X140049619Y-126357142D01*
%TO.C,TP2*%
X138240095Y-127552380D02*
X138811523Y-127552380D01*
X138525809Y-128552380D02*
X138525809Y-127552380D01*
X139144857Y-128552380D02*
X139144857Y-127552380D01*
X139525809Y-127552380D01*
X139621047Y-127600000D01*
X139668666Y-127647619D01*
X139716285Y-127742857D01*
X139716285Y-127885714D01*
X139668666Y-127980952D01*
X139621047Y-128028571D01*
X139525809Y-128076190D01*
X139144857Y-128076190D01*
X140097238Y-127647619D02*
X140144857Y-127600000D01*
X140240095Y-127552380D01*
X140478190Y-127552380D01*
X140573428Y-127600000D01*
X140621047Y-127647619D01*
X140668666Y-127742857D01*
X140668666Y-127838095D01*
X140621047Y-127980952D01*
X140049619Y-128552380D01*
X140668666Y-128552380D01*
%TO.C,TP1*%
X138240095Y-129652380D02*
X138811523Y-129652380D01*
X138525809Y-130652380D02*
X138525809Y-129652380D01*
X139144857Y-130652380D02*
X139144857Y-129652380D01*
X139525809Y-129652380D01*
X139621047Y-129700000D01*
X139668666Y-129747619D01*
X139716285Y-129842857D01*
X139716285Y-129985714D01*
X139668666Y-130080952D01*
X139621047Y-130128571D01*
X139525809Y-130176190D01*
X139144857Y-130176190D01*
X140668666Y-130652380D02*
X140097238Y-130652380D01*
X140382952Y-130652380D02*
X140382952Y-129652380D01*
X140287714Y-129795238D01*
X140192476Y-129890476D01*
X140097238Y-129938095D01*
%TO.C,J1*%
X152322380Y-138918333D02*
X153036666Y-138918333D01*
X153179523Y-138965952D01*
X153274761Y-139061190D01*
X153322380Y-139204047D01*
X153322380Y-139299285D01*
X153322380Y-137918333D02*
X153322380Y-138489761D01*
X153322380Y-138204047D02*
X152322380Y-138204047D01*
X152465238Y-138299285D01*
X152560476Y-138394523D01*
X152608095Y-138489761D01*
%TO.C,X1*%
X145552380Y-121109523D02*
X146552380Y-120442857D01*
X145552380Y-120442857D02*
X146552380Y-121109523D01*
X146552380Y-119538095D02*
X146552380Y-120109523D01*
X146552380Y-119823809D02*
X145552380Y-119823809D01*
X145695238Y-119919047D01*
X145790476Y-120014285D01*
X145838095Y-120109523D01*
%TO.C,IC1*%
X143423809Y-67552380D02*
X143423809Y-66552380D01*
X144471428Y-67457142D02*
X144423809Y-67504761D01*
X144280952Y-67552380D01*
X144185714Y-67552380D01*
X144042857Y-67504761D01*
X143947619Y-67409523D01*
X143900000Y-67314285D01*
X143852380Y-67123809D01*
X143852380Y-66980952D01*
X143900000Y-66790476D01*
X143947619Y-66695238D01*
X144042857Y-66600000D01*
X144185714Y-66552380D01*
X144280952Y-66552380D01*
X144423809Y-66600000D01*
X144471428Y-66647619D01*
X145423809Y-67552380D02*
X144852380Y-67552380D01*
X145138095Y-67552380D02*
X145138095Y-66552380D01*
X145042857Y-66695238D01*
X144947619Y-66790476D01*
X144852380Y-66838095D01*
%TO.C,IC3*%
X138823809Y-57252380D02*
X138823809Y-56252380D01*
X139871428Y-57157142D02*
X139823809Y-57204761D01*
X139680952Y-57252380D01*
X139585714Y-57252380D01*
X139442857Y-57204761D01*
X139347619Y-57109523D01*
X139300000Y-57014285D01*
X139252380Y-56823809D01*
X139252380Y-56680952D01*
X139300000Y-56490476D01*
X139347619Y-56395238D01*
X139442857Y-56300000D01*
X139585714Y-56252380D01*
X139680952Y-56252380D01*
X139823809Y-56300000D01*
X139871428Y-56347619D01*
X140204761Y-56252380D02*
X140823809Y-56252380D01*
X140490476Y-56633333D01*
X140633333Y-56633333D01*
X140728571Y-56680952D01*
X140776190Y-56728571D01*
X140823809Y-56823809D01*
X140823809Y-57061904D01*
X140776190Y-57157142D01*
X140728571Y-57204761D01*
X140633333Y-57252380D01*
X140347619Y-57252380D01*
X140252380Y-57204761D01*
X140204761Y-57157142D01*
%TO.C,IC2*%
X146623809Y-57302380D02*
X146623809Y-56302380D01*
X147671428Y-57207142D02*
X147623809Y-57254761D01*
X147480952Y-57302380D01*
X147385714Y-57302380D01*
X147242857Y-57254761D01*
X147147619Y-57159523D01*
X147100000Y-57064285D01*
X147052380Y-56873809D01*
X147052380Y-56730952D01*
X147100000Y-56540476D01*
X147147619Y-56445238D01*
X147242857Y-56350000D01*
X147385714Y-56302380D01*
X147480952Y-56302380D01*
X147623809Y-56350000D01*
X147671428Y-56397619D01*
X148052380Y-56397619D02*
X148100000Y-56350000D01*
X148195238Y-56302380D01*
X148433333Y-56302380D01*
X148528571Y-56350000D01*
X148576190Y-56397619D01*
X148623809Y-56492857D01*
X148623809Y-56588095D01*
X148576190Y-56730952D01*
X148004761Y-57302380D01*
X148623809Y-57302380D01*
%TD*%
M02*
