M48
; DRILL file {KiCad (5.1.10-1-10_14)} date Saturday, March 12, 2022 at 11:50:35 AM
; FORMAT={-:-/ absolute / metric / decimal}
; #@! TF.CreationDate,2022-03-12T11:50:35+00:00
; #@! TF.GenerationSoftware,Kicad,Pcbnew,(5.1.10-1-10_14)
; #@! TF.FileFunction,Plated,1,2,PTH
FMAT,2
METRIC
T1C0.300
T2C0.500
T3C0.800
T4C1.000
%
G90
G05
T1
X132.85Y-92.75
X132.85Y-66.95
X136.9Y-60.2
X137.0Y-69.95
X137.86Y-105.5
X137.86Y-107.9
X137.9Y-109.2
X138.94Y-108.598
X138.95Y-90.9
X138.95Y-91.8
X139.26Y-104.6
X139.59Y-103.916
X140.026Y-72.776
X140.178Y-103.433
X140.2Y-57.6
X140.2Y-75.3
X140.64Y-102.7
X140.75Y-105.5
X140.8Y-60.3
X140.8Y-110.3
X140.81Y-115.7
X141.2Y-101.9
X141.5Y-76.65
X141.55Y-60.425
X141.74Y-101.3
X141.75Y-85.65
X141.863Y-106.325
X141.9Y-80.8
X142.3Y-100.7
X142.637Y-57.537
X142.65Y-107.1
X142.7Y-66.1
X142.75Y-104.0
X142.84Y-98.2
X143.448Y-107.09
X143.45Y-106.3
X143.46Y-107.85
X143.5Y-99.5
X143.85Y-124.3
X143.937Y-114.363
X144.0Y-108.95
X144.1Y-119.3
X144.3Y-98.3
X144.325Y-110.425
X144.45Y-81.2
X144.6Y-87.25
X144.7Y-60.2
X144.7Y-129.1
X144.737Y-62.96
X144.75Y-125.0
X144.957Y-132.25
X145.1Y-108.6
X145.25Y-115.7
X145.3Y-57.7
X145.3Y-104.7
X145.312Y-120.262
X145.55Y-94.5
X145.85Y-77.85
X146.1Y-57.7
X146.3Y-98.5
X146.45Y-110.4
X146.45Y-109.0
X146.6Y-93.8
X146.7Y-129.5
X147.0Y-57.7
X147.05Y-97.9
X147.4Y-114.0
X147.55Y-124.55
X147.85Y-77.05
X147.86Y-57.7
X147.957Y-60.393
X148.25Y-108.5
X148.3Y-104.7
X148.35Y-98.5
X148.35Y-101.1
X148.48Y-113.704
X148.55Y-117.25
X148.6Y-75.25
X148.7Y-72.8
X148.85Y-70.6
X148.882Y-60.718
X149.3Y-110.65
X149.6Y-121.9
X150.0Y-109.75
X150.05Y-107.3
X150.05Y-98.78
X150.06Y-100.35
X150.2Y-66.4
X150.6Y-101.7
X151.26Y-69.2
X151.35Y-90.0
X151.4Y-57.6
X151.527Y-60.272
X151.8Y-92.3
X151.8Y-82.15
X157.8Y-102.6
T2
X141.65Y-126.0
X141.65Y-128.1
X141.65Y-130.2
X143.7Y-126.0
X143.7Y-128.1
T3
X131.572Y-55.626
X131.572Y-58.166
X131.572Y-60.706
X131.572Y-63.246
X131.572Y-65.786
X131.572Y-68.326
X131.572Y-70.866
X131.572Y-73.406
X131.572Y-75.946
X131.572Y-78.486
X131.572Y-81.026
X131.572Y-83.566
X131.572Y-86.106
X131.572Y-88.646
X131.572Y-91.186
X131.572Y-93.726
X131.572Y-96.266
X131.572Y-98.806
X131.572Y-101.346
X131.572Y-103.886
X131.572Y-106.426
X131.572Y-108.966
X131.572Y-111.506
X131.572Y-114.046
X131.572Y-116.586
X131.572Y-119.126
X131.572Y-121.666
X131.572Y-124.206
X131.572Y-126.746
X131.572Y-129.286
X131.572Y-131.826
X131.572Y-134.366
X134.112Y-55.626
X134.112Y-58.166
X134.112Y-60.706
X134.112Y-63.246
X134.112Y-65.786
X134.112Y-68.326
X134.112Y-70.866
X134.112Y-73.406
X134.112Y-75.946
X134.112Y-78.486
X134.112Y-81.026
X134.112Y-83.566
X134.112Y-86.106
X134.112Y-88.646
X134.112Y-91.186
X134.112Y-93.726
X134.112Y-96.266
X134.112Y-98.806
X134.112Y-101.346
X134.112Y-103.886
X134.112Y-106.426
X134.112Y-108.966
X134.112Y-111.506
X134.112Y-114.046
X134.112Y-116.586
X134.112Y-119.126
X134.112Y-121.666
X134.112Y-124.206
X134.112Y-126.746
X134.112Y-129.286
X134.112Y-131.826
X134.112Y-134.366
X154.432Y-55.626
X154.432Y-58.166
X154.432Y-60.706
X154.432Y-63.246
X154.432Y-65.786
X154.432Y-68.326
X154.432Y-70.866
X154.432Y-73.406
X154.432Y-75.946
X154.432Y-78.486
X154.432Y-81.026
X154.432Y-83.566
X154.432Y-86.106
X154.432Y-88.646
X154.432Y-91.186
X154.432Y-93.726
X154.432Y-96.266
X154.432Y-98.806
X154.432Y-101.346
X154.432Y-103.886
X154.432Y-106.426
X154.432Y-108.966
X154.432Y-111.506
X154.432Y-114.046
X154.432Y-116.586
X154.432Y-119.126
X154.432Y-121.666
X154.432Y-124.206
X154.432Y-126.746
X154.432Y-129.286
X154.432Y-131.826
X154.432Y-134.366
X156.972Y-55.626
X156.972Y-58.166
X156.972Y-60.706
X156.972Y-63.246
X156.972Y-65.786
X156.972Y-68.326
X156.972Y-70.866
X156.972Y-73.406
X156.972Y-75.946
X156.972Y-78.486
X156.972Y-81.026
X156.972Y-83.566
X156.972Y-86.106
X156.972Y-88.646
X156.972Y-91.186
X156.972Y-93.726
X156.972Y-96.266
X156.972Y-98.806
X156.972Y-101.346
X156.972Y-103.886
X156.972Y-106.426
X156.972Y-108.966
X156.972Y-111.506
X156.972Y-114.046
X156.972Y-116.586
X156.972Y-119.126
X156.972Y-121.666
X156.972Y-124.206
X156.972Y-126.746
X156.972Y-129.286
X156.972Y-131.826
X156.972Y-134.366
T4
X137.9Y-134.2
X140.44Y-134.2
X142.98Y-134.2
X145.52Y-134.2
X148.06Y-134.2
X150.6Y-134.2
T0
M30
